<?xml version="1.0" encoding="UTF-8" standalone="no"?>
<svg
   width="1024"
   height="1024"
   viewBox="0 0 1024 1024"
   version="1.1"
   xml:space="preserve"
   style="clip-rule:evenodd;fill-rule:evenodd;stroke-linejoin:round;stroke-miterlimit:2"
   id="svg7"
   xmlns:xlink="http://www.w3.org/1999/xlink"
   xmlns="http://www.w3.org/2000/svg"
   xmlns:svg="http://www.w3.org/2000/svg"><defs
   id="defs7"><linearGradient
     id="swatch16"
     gradientTransform="matrix(0.63586674,0,0,0.63586674,206.78396,817.21604)"><stop
       style="stop-color:#ffffff;stop-opacity:1;"
       offset="0"
       id="stop16" /></linearGradient><linearGradient
     id="swatch15"><stop
       style="stop-color:#0060c7;stop-opacity:1;"
       offset="0"
       id="stop15" /></linearGradient><linearGradient
     id="swatch14"><stop
       style="stop-color:#b4ce00;stop-opacity:1;"
       offset="0"
       id="stop14" /></linearGradient><linearGradient
     id="swatch13"><stop
       style="stop-color:#004697;stop-opacity:1;"
       offset="0"
       id="stop13" /></linearGradient><linearGradient
     id="swatch12"><stop
       style="stop-color:#00c1d6;stop-opacity:1;"
       offset="0"
       id="stop12" /></linearGradient><linearGradient
     id="swatch11"><stop
       style="stop-color:#0382e2;stop-opacity:1;"
       offset="0"
       id="stop11" /></linearGradient><style
     id="style1">
      .cls-1 {
        fill: #0382e2;
      }

      .cls-1, .cls-2, .cls-3, .cls-4, .cls-5, .cls-6 {
        stroke-width: 0px;
      }

      .cls-2 {
        fill: #00c1d6;
      }

      .cls-3 {
        fill: #b4ce00;
      }

      .cls-4 {
        fill: #fff;
      }

      .cls-5 {
        fill: #0060c7;
      }

      .cls-6 {
        fill: #004697;
      }
    </style><style
     id="style1-9">
      .cls-1 {
        fill: #0382e2;
      }

      .cls-1, .cls-2, .cls-3, .cls-4, .cls-5, .cls-6 {
        stroke-width: 0px;
      }

      .cls-2 {
        fill: #00c1d6;
      }

      .cls-3 {
        fill: #b4ce00;
      }

      .cls-4 {
        fill: #fff;
      }

      .cls-5 {
        fill: #0060c7;
      }

      .cls-6 {
        fill: #004697;
      }
    </style><style
     id="style1-7">
      .cls-1 {
        fill: #fff;
      }

      .cls-1, .cls-2 {
        stroke-width: 0px;
      }

      .cls-2 {
        fill: #004697;
      }
    </style><linearGradient
     xlink:href="#swatch13"
     id="linearGradient1"
     gradientUnits="userSpaceOnUse"
     x1="132"
     y1="512"
     x2="892"
     y2="512" /></defs>
    
    <g
   id="g12"
   clip-path="none"
   style="clip-rule:evenodd;display:inline;fill-rule:evenodd;stroke-linejoin:round;stroke-miterlimit:2"><path
     id="ellipse1"
     clip-path="none"
     style="clip-rule:evenodd;fill:url(#swatch11);fill-rule:evenodd;stroke-width:11.3386;stroke-linecap:round;stroke-linejoin:round;stroke-miterlimit:2"
     d="M 512,62 A 450,450 0 0 0 62,512 450,450 0 0 0 512,962 450,450 0 0 0 962,512 450,450 0 0 0 512,62 Z" /><path
     id="ellipse2"
     clip-path="none"
     style="clip-rule:evenodd;fill:url(#swatch12);fill-rule:evenodd;stroke-width:17.6384;stroke-linecap:round;stroke-linejoin:round;stroke-miterlimit:2"
     d="M 959.40039,463.69727 A 1220.5096,449.45505 0 0 0 489.45898,818.11719 1220.5096,449.45505 0 0 0 552.06055,960.21289 450,450 0 0 0 962,512 450,450 0 0 0 959.40039,463.69727 Z" /><path
     id="ellipse8"
     clip-path="none"
     style="clip-rule:evenodd;fill:url(#swatch14);fill-rule:evenodd;stroke-width:14.1512;stroke-linecap:round;stroke-linejoin:round;stroke-miterlimit:2"
     d="M 90.439453,669.43945 A 450,450 0 0 0 512,962 450,450 0 0 0 667.80859,934.16602 598.13824,328.4375 0 0 0 90.439453,669.43945 Z" /><path
     id="ellipse9"
     clip-path="none"
     style="display:inline;fill:url(#swatch15);stroke-width:10.961;stroke-linecap:round;stroke-linejoin:round"
     d="M 512,62 A 450,450 0 0 0 62,512 450,450 0 0 0 67.15625,579.92773 1044.7284,755.44653 0 0 0 709.94141,107.87305 450,450 0 0 0 512,62 Z" /><path
     id="ellipse10"
     clip-path="none"
     style="fill:url(#swatch13);stroke-width:11.3386;stroke-linecap:round;stroke-linejoin:round"
     d="M 442.28906,67.431641 A 450,450 0 0 0 63.238281,478.62695 1069.0244,912.20465 0 0 0 442.28906,67.431641 Z" /><path
     id="circle12"
     clip-path="none"
     style="clip-rule:evenodd;display:inline;fill:url(#linearGradient1);fill-opacity:1;fill-rule:evenodd;stroke:none;stroke-width:1.43092;stroke-linejoin:round;stroke-miterlimit:2"
     d="M 512,132 A 380,380 0 0 0 132,512 380,380 0 0 0 512,892 380,380 0 0 0 892,512 380,380 0 0 0 512,132 Z"><desc
       id="desc10">This is the background behind the text</desc></path></g>
<g
   id="layer1"><path
     d="m 206.78396,664.60802 v -40.05961 q 0,-27.34227 27.97814,-44.51067 27.97814,-17.16841 73.76054,-17.16841 8.26627,0 15.89667,0.31794 7.6304,0.31794 14.62494,1.58966 -8.90214,13.35321 -13.3532,27.97815 -4.45107,14.62494 -4.45107,30.5216 v 41.33134 z m 152.60802,0 v -41.33134 q 0,-20.34773 11.12767,-37.1982 11.12767,-16.85047 31.4754,-29.56781 20.34774,-12.71733 48.64381,-19.07601 28.29607,-6.35865 61.36114,-6.35865 33.70094,0 61.99701,6.35865 28.29607,6.35868 48.6438,19.07601 20.34774,12.71734 31.15747,29.56781 10.80974,16.85046 10.80974,37.1982 v 41.33134 z m 343.36804,0 v -41.33134 q 0,-16.53253 -4.13313,-31.15747 -4.13314,-14.62493 -12.3994,-27.34227 6.99453,-1.27173 14.307,-1.58966 7.31247,-0.31794 14.94287,-0.31794 45.7824,0 73.76054,16.85047 27.97814,16.85047 27.97814,44.82861 v 40.0596 z M 308.52264,537.43466 q -20.9836,0 -35.92647,-14.94286 -14.94287,-14.94286 -14.94287,-35.92647 0,-21.61946 14.94287,-36.24441 14.94287,-14.62493 35.92647,-14.62493 21.61947,0 36.24441,14.62493 14.62493,14.62494 14.62493,36.24441 0,20.98361 -14.62493,35.92647 -14.62494,14.94286 -36.24441,14.94286 z m 406.95472,0 q -20.98361,0 -35.92647,-14.94286 -14.94287,-14.94286 -14.94287,-35.92647 0,-21.61946 14.94287,-36.24441 14.94286,-14.62493 35.92647,-14.62493 21.61947,0 36.2444,14.62493 14.62494,14.62494 14.62494,36.24441 0,20.98361 -14.62494,35.92647 -14.62493,14.94286 -36.2444,14.94286 z M 512,512 q -31.79334,0 -54.04867,-22.25534 -22.25534,-22.25534 -22.25534,-54.04867 0,-32.42921 22.25534,-54.36661 22.25533,-21.9374 54.04867,-21.9374 32.4292,0 54.36661,21.9374 21.9374,21.93741 21.9374,54.36661 0,31.79333 -21.9374,54.04867 Q 544.4292,512 512,512 Z"
     id="path1"
     style="clip-rule:evenodd;fill:url(#swatch16);fill-rule:evenodd;stroke-width:0.635867;stroke-linejoin:round;stroke-miterlimit:2" /></g></svg>
