<svg xmlns="http://www.w3.org/2000/svg" xmlns:xlink="http://www.w3.org/1999/xlink" version="1.1" x="0px" y="0px" viewBox="0 0 28.001 30" style="enable-background:new 0 0 28.001 30;" xml:space="preserve"><g><path d="M0.001,18.5c0,2.481,6.28,4.5,14,4.5c7.713,0,13.988-2.016,13.999-4.494v-0.011c-0.001-0.168,0-3.583,0-3.583   C25.123,17.021,19.549,18,14.001,18C8.452,18,2.876,17.021,0,14.91C0,14.91,0.001,18.331,0.001,18.5z"></path><path d="M28,21.912C25.123,24.021,19.549,25,14.001,25C8.452,25,2.876,24.021,0,21.91V26l0,0c0.775,2.25,6.795,4,14.001,4   s13.225-1.75,14-4l0,0L28,21.912z"></path><path d="M0.001,11.5c0,2.481,6.28,4.5,14,4.5c7.713,0,13.988-2.016,13.999-4.494v-0.011c-0.001-0.168,0-3.583,0-3.583   C25.123,10.021,19.549,11,14.001,11C8.452,11,2.876,10.021,0,7.91C0,7.91,0.001,11.331,0.001,11.5z"></path><ellipse cx="14.001" cy="4.5" rx="14" ry="4.5"></ellipse></g></svg>