<?xml version="1.0" encoding="UTF-8" standalone="no"?>
<svg
   height="24"
   viewBox="0 -960 960 960"
   width="24"
   version="1.1"
   id="svg1"
   sodipodi:docname="add_to_map.svg"
   inkscape:version="1.3.2 (091e20e, 2023-11-25, custom)"
   xmlns:inkscape="http://www.inkscape.org/namespaces/inkscape"
   xmlns:sodipodi="http://sodipodi.sourceforge.net/DTD/sodipodi-0.dtd"
   xmlns="http://www.w3.org/2000/svg"
   xmlns:svg="http://www.w3.org/2000/svg">
  <defs
     id="defs1" />
  <sodipodi:namedview
     id="namedview1"
     pagecolor="#ffffff"
     bordercolor="#000000"
     borderopacity="0.25"
     inkscape:showpageshadow="2"
     inkscape:pageopacity="0.0"
     inkscape:pagecheckerboard="0"
     inkscape:deskcolor="#d1d1d1"
     inkscape:zoom="34.625"
     inkscape:cx="11.98556"
     inkscape:cy="12"
     inkscape:window-width="1920"
     inkscape:window-height="1027"
     inkscape:window-x="1912"
     inkscape:window-y="-8"
     inkscape:window-maximized="1"
     inkscape:current-layer="svg1" />
  <path
     d="M480-80q-83 0-156-31.5T197-197q-54-54-85.5-127T80-480q0-83 31.5-156T197-763q54-54 127-85.5T480-880q83 0 156 31.5T763-763q54 54 85.5 127T880-480q0 83-31.5 156T763-197q-54 54-127 85.5T480-80Zm-40-82v-78q-33 0-56.5-23.5T360-320v-40L168-552q-3 18-5.5 36t-2.5 36q0 121 79.5 212T440-162Zm276-102q20-22 36-47.5t26.5-53q10.5-27.5 16-56.5t5.5-59q0-98-54.5-179T600-776v16q0 33-23.5 56.5T520-680h-80v80q0 17-11.5 28.5T400-560h-80v80h240q17 0 28.5 11.5T600-440v120h40q26 0 47 15.5t29 40.5Z"
     id="path1" />
  <path
     style="fill:#4dcbdc;stroke-width:0.0288809"
     d="M 10.599278,19.871701 C 8.9793897,19.5866 7.6469687,18.914724 6.5021564,17.80572 5.2816931,16.623432 4.4880152,15.203598 4.1770163,13.646209 4.0716172,13.118402 4.0288342,12.65292 4.0297726,12.044184 c 9.218e-4,-0.598012 0.012437,-0.735727 0.1180567,-1.411873 l 0.062511,-0.40018 2.3930247,2.392895 2.3930246,2.392894 v 0.638045 c 0,0.731461 0.034181,0.930198 0.2221008,1.291341 0.1637274,0.314651 0.554065,0.695202 0.8753726,0.853425 0.252052,0.12412 0.555779,0.205102 0.772563,0.205988 l 0.122744,5.01e-4 v 0.967509 c 0,0.53213 -0.0032,0.966506 -0.0072,0.965281 -0.004,-0.0012 -0.176173,-0.03196 -0.382671,-0.06831 z"
     id="path2"
     transform="matrix(40,0,0,40,0,-960)" />
  <path
     style="fill:#4dcbdc;stroke-width:0.0288809"
     d="m 17.838596,17.198417 c -0.15694,-0.404738 -0.538638,-0.801633 -0.97217,-1.01088 C 16.523289,16.02192 16.294742,15.98556 15.596885,15.98556 H 15.00361 v -1.601805 c 0,-1.567523 -0.0013,-1.605351 -0.06199,-1.767492 -0.07536,-0.201406 -0.27108,-0.419349 -0.471732,-0.525282 l -0.144976,-0.07654 -3.155235,-0.0077 -3.1552346,-0.0077 V 11.004111 10.00918 L 9.1480164,10.00098 10.28159,9.9928 10.444923,9.916226 c 0.201558,-0.094495 0.372895,-0.267111 0.478419,-0.4819922 l 0.08027,-0.1634559 0.0088,-1.133574 0.0088,-1.133574 h 1.134632 c 1.034725,0 1.154239,-0.00501 1.357316,-0.056953 0.359946,-0.092059 0.601829,-0.2354773 0.899962,-0.5336106 0.429469,-0.4294689 0.590564,-0.8250448 0.590564,-1.4501573 0,-0.2429461 0.0093,-0.3274172 0.0361,-0.3271503 0.065,6.48e-4 0.954006,0.4479449 1.229152,0.6184409 2.041988,1.2653302 3.430394,3.5012547 3.674786,5.9179684 0.04505,0.445448 0.02029,1.605852 -0.04248,1.991674 -0.252622,1.55255 -0.902438,2.9585 -1.881441,4.070706 l -0.116017,0.131802 z"
     id="path3"
     transform="matrix(40,0,0,40,0,-960)" />
</svg>
