<?xml version="1.0" encoding="UTF-8" standalone="no"?>
<svg
   height="20px"
   viewBox="0 0 24 24"
   width="20px"
   fill="#000000"
   xmlns="http://www.w3.org/2000/svg"
   xmlns:svg="http://www.w3.org/2000/svg">
  <path
     d="M0 0h24v24H0V0z"
     fill="none"
     id="path1" />
  <path
     d="M19 3H5c-1.1 0-2 .9-2 2v14c0 1.1.9 2 2 2h14c1.1 0 2-.9 2-2V5c0-1.1-.9-2-2-2zm0 16H5V5h14v14zM7 10h2v7H7zm4-3h2v10h-2zm4 6h2v4h-2z"
     id="path2" />
  <path
     style="fill:#4dcbdc;fill-opacity:0.8;stroke-width:0.0240674"
     d="M 4.1756919,10 V 4.1756919 H 10 15.824308 V 10 15.824308 H 10 4.1756919 Z m 3.3333334,1.251504 V 8.3273165 H 6.6666667 5.8243081 l -0.00619,2.9001205 c -0.00341,1.595066 -9.844e-4,2.913799 0.00538,2.930517 0.00908,0.02385 0.1918702,0.02903 0.8485515,0.02407 l 0.8369772,-0.0063 z M 10.842359,10 V 5.8122744 H 10 9.1576414 V 10 14.187726 H 10 10.842359 Z m 3.339513,2.496992 0.0062,-1.678701 H 13.333516 12.47896 v 1.668672 c 0,0.91777 0.0074,1.676031 0.01635,1.685025 0.009,0.009 0.390762,0.01351 0.848375,0.01003 l 0.832024,-0.0063 z"
     id="path3"
     transform="scale(1.2)" />
</svg>
