<svg xmlns="http://www.w3.org/2000/svg" viewBox="0 0 53.91 53.92" x="0px" y="0px"><defs><style>.cls-1{fill:#000000;}</style></defs><title>Fichier 1032</title><g data-name="Calque 2"><g data-name="Calque 2"><path class="cls-1" d="M50.42,0H3.49A3.5,3.5,0,0,0,0,3.5V50.42a3.5,3.5,0,0,0,3.49,3.5H50.42a3.5,3.5,0,0,0,3.49-3.5V3.5A3.5,3.5,0,0,0,50.42,0ZM38.3,26.81A4.1,4.1,0,0,1,35,28.33H31V39.56a2.41,2.41,0,0,1-.16.88A4,4,0,0,1,27,42.74a4,4,0,0,1-3.84-2.3,2.41,2.41,0,0,1-.16-.88V28.33h-4a4.09,4.09,0,0,1-3.3-1.52,2.51,2.51,0,0,1,0-3l8-11.08a4.33,4.33,0,0,1,6.6,0l8,11.08A2.52,2.52,0,0,1,38.3,26.81Z"></path></g></g></svg>