<svg xmlns="http://www.w3.org/2000/svg" viewBox="0 0 53.91 53.92" x="0px" y="0px"><defs><style>.cls-1{fill:#000000;}</style></defs><title>Fichier 1033</title><g data-name="Calque 2"><g data-name="Calque 2"><path class="cls-1" d="M50.42,0H3.49A3.5,3.5,0,0,0,0,3.5V50.42a3.5,3.5,0,0,0,3.49,3.5H50.42a3.5,3.5,0,0,0,3.49-3.5V3.5A3.5,3.5,0,0,0,50.42,0ZM38.3,30.13l-8,11.08a4.33,4.33,0,0,1-6.6,0l-8-11.07a2.51,2.51,0,0,1,0-3,4.06,4.06,0,0,1,3.3-1.52h4V14.35a2.41,2.41,0,0,1,.16-.88A4,4,0,0,1,27,11.17a4,4,0,0,1,3.84,2.3,2.41,2.41,0,0,1,.16.88V25.59H35a4.07,4.07,0,0,1,3.3,1.52A2.51,2.51,0,0,1,38.3,30.13Z"></path></g></g></svg>