<?xml version="1.0" encoding="UTF-8" standalone="no"?>
<svg
   height="24"
   viewBox="0 -960 960 960"
   width="24"
   xmlns="http://www.w3.org/2000/svg"
   xmlns:svg="http://www.w3.org/2000/svg">
  <path
     d="M320-240h60v-80h80v-60h-80v-80h-60v80h-80v60h80v80Zm200-30h200v-60H520v60Zm0-100h200v-60H520v60Zm44-152 56-56 56 56 42-42-56-58 56-56-42-42-56 56-56-56-42 42 56 56-56 58 42 42Zm-314-70h200v-60H250v60Zm-50 472q-33 0-56.5-23.5T120-200v-560q0-33 23.5-56.5T200-840h560q33 0 56.5 23.5T840-760v560q0 33-23.5 56.5T760-120H200Zm0-80h560v-560H200v560Zm0-560v560-560Z"
     id="path1" />
  <path
     style="fill:#4dcbdc;stroke-width:0.0288809"
     d="M 5.0108303,12 V 5.0108303 H 12 18.98917 V 12 18.98917 H 12 5.0108303 Z m 4.5054152,5.01083 v -0.99639 h 0.9963895 0.99639 v -0.765343 -0.765342 h -0.99639 -0.9963895 v -0.99639 -0.99639 H 8.7509025 7.9855596 v 0.99639 0.99639 H 6.9891697 5.9927798 v 0.765342 0.765343 h 0.9963899 0.9963899 v 0.99639 0.99639 h 0.7653429 0.765343 z M 18.00722,16.490975 v -0.765343 h -2.512635 -2.512636 v 0.765343 0.765343 h 2.512636 2.512635 z m 0,-2.483755 v -0.765343 h -2.512635 -2.512636 v 0.765343 0.765343 h 2.512636 2.512635 z m -3.191331,-3.740077 0.692694,-0.6931447 0.700542,0.7001047 0.700542,0.700104 0.519896,-0.519293 c 0.285943,-0.285612 0.519895,-0.5332874 0.519895,-0.5503901 0,-0.017103 -0.255537,-0.2966608 -0.567861,-0.6212396 -0.312324,-0.324579 -0.620663,-0.6456011 -0.6852,-0.7133825 l -0.117338,-0.1232393 0.6852,-0.6856462 c 0.37686,-0.3771054 0.685199,-0.6986785 0.685199,-0.7146069 0,-0.015928 -0.233986,-0.2626758 -0.519968,-0.5483276 L 16.909521,5.9787148 16.209419,6.678817 15.509316,7.3789192 14.808747,6.678788 14.108178,5.9786567 13.566883,6.5199519 13.025588,7.061247 l 0.701529,0.7019672 0.701528,0.7019673 -0.0624,0.056218 c -0.03432,0.03092 -0.349146,0.3526868 -0.699616,0.7150377 l -0.637218,0.6588199 0.531932,0.5325159 c 0.292563,0.292883 0.538664,0.532516 0.546891,0.532516 0.0082,0 0.326671,-0.311916 0.707653,-0.693146 z m -3.544651,-1.8122694 0.0077,-0.7581227 H 8.7513819 6.2238267 v 0.7655015 0.7655015 l 2.5198556,-0.00738 2.5198557,-0.00738 z"
     id="path2"
     transform="matrix(40,0,0,40,0,-960)" />
</svg>
