<?xml version="1.0" encoding="UTF-8" standalone="no"?>
<svg
   height="24"
   viewBox="0 -960 960 960"
   width="24"
   xmlns="http://www.w3.org/2000/svg"
   xmlns:svg="http://www.w3.org/2000/svg">
  <path
     d="M200-80q-33 0-56.5-23.5T120-160v-560q0-33 23.5-56.5T200-800h40v-80h80v80h320v-80h80v80h40q33 0 56.5 23.5T840-720v560q0 33-23.5 56.5T760-80H200Zm0-80h560v-400H200v400Zm0-480h560v-80H200v80Zm0 0v-80 80Zm280 240q-17 0-28.5-11.5T440-440q0-17 11.5-28.5T480-480q17 0 28.5 11.5T520-440q0 17-11.5 28.5T480-400Zm-160 0q-17 0-28.5-11.5T280-440q0-17 11.5-28.5T320-480q17 0 28.5 11.5T360-440q0 17-11.5 28.5T320-400Zm320 0q-17 0-28.5-11.5T600-440q0-17 11.5-28.5T640-480q17 0 28.5 11.5T680-440q0 17-11.5 28.5T640-400ZM480-240q-17 0-28.5-11.5T440-280q0-17 11.5-28.5T480-320q17 0 28.5 11.5T520-280q0 17-11.5 28.5T480-240Zm-160 0q-17 0-28.5-11.5T280-280q0-17 11.5-28.5T320-320q17 0 28.5 11.5T360-280q0 17-11.5 28.5T320-240Zm320 0q-17 0-28.5-11.5T600-280q0-17 11.5-28.5T640-320q17 0 28.5 11.5T680-280q0 17-11.5 28.5T640-240Z"
     id="path1" />
  <path
     style="fill:#4dcbdc;stroke-width:0.0288809"
     d="M 5.0252708,15.00361 V 10.00722 H 12 18.974729 V 15.00361 20 H 12 5.0252708 Z m 3.4118735,2.920335 c 0.2137591,-0.10281 0.3601215,-0.247494 0.4641698,-0.458846 0.087334,-0.1774 0.095076,-0.215517 0.095076,-0.468102 0,-0.235901 -0.010647,-0.297547 -0.074927,-0.43382 C 8.825825,16.360422 8.6355934,16.170307 8.433213,16.075224 8.2972745,16.011358 8.2348029,16.000596 8,16.000596 c -0.2348028,0 -0.2972745,0.01076 -0.433213,0.07463 -0.3343964,0.157106 -0.5472234,0.473605 -0.5713582,0.849677 -0.030594,0.476726 0.2171985,0.868937 0.6521443,1.032227 0.1941917,0.0729 0.6048867,0.05564 0.7895712,-0.03318 z m 3.9879017,0.004 c 0.202572,-0.0907 0.405935,-0.295782 0.499057,-0.503286 0.06359,-0.141705 0.07988,-0.221465 0.08099,-0.396659 0.0017,-0.267461 -0.03828,-0.416324 -0.160718,-0.598495 -0.39485,-0.587482 -1.293896,-0.587482 -1.688746,0 -0.122572,0.182371 -0.162415,0.331059 -0.160701,0.599711 0.0011,0.175696 0.01713,0.254925 0.07876,0.389891 0.1209,0.264757 0.337313,0.461339 0.60355,0.548243 0.178178,0.05816 0.576816,0.03715 0.747813,-0.03941 z m 4.012098,-0.004 c 0.213759,-0.10281 0.360122,-0.247494 0.46417,-0.458846 0.08733,-0.1774 0.09508,-0.215517 0.09508,-0.468102 0,-0.235901 -0.01065,-0.297547 -0.07493,-0.43382 -0.09564,-0.202755 -0.28587,-0.39287 -0.48825,-0.487953 -0.135938,-0.06387 -0.19841,-0.07463 -0.433213,-0.07463 -0.234803,0 -0.297275,0.01076 -0.433213,0.07463 -0.334396,0.157106 -0.547223,0.473605 -0.571358,0.849677 -0.03059,0.476726 0.217198,0.868937 0.652144,1.032227 0.194192,0.0729 0.604887,0.05564 0.789571,-0.03318 z M 8.4397588,13.915316 c 0.1942704,-0.08718 0.4016457,-0.294638 0.4936919,-0.49388 0.051387,-0.111231 0.062939,-0.189249 0.062939,-0.425046 0,-0.257861 -0.00867,-0.306457 -0.080877,-0.453505 C 8.7453649,12.196399 8.4141612,12 8,12 7.5858387,12 7.254635,12.196399 7.084487,12.542885 7.012277,12.689933 7.00361,12.738529 7.00361,12.99639 c 0,0.339052 0.049634,0.47732 0.2489746,0.693579 0.2949746,0.320009 0.7737356,0.410887 1.1871742,0.225347 z m 3.8099872,0.06705 c 0.333088,-0.0784 0.601164,-0.31829 0.705805,-0.631596 0.06303,-0.188729 0.0635,-0.537661 9.41e-4,-0.709578 -0.09989,-0.274526 -0.330833,-0.501891 -0.603711,-0.594363 -0.17759,-0.06018 -0.526422,-0.06051 -0.705562,-6.65e-4 -0.259763,0.08678 -0.507044,0.32993 -0.603328,0.593251 -0.07041,0.192544 -0.06304,0.550512 0.01553,0.754418 0.07026,0.182348 0.272181,0.413112 0.437152,0.499592 0.226783,0.118884 0.492599,0.150274 0.753174,0.08894 z m 4.190013,-0.06705 c 0.19427,-0.08718 0.401645,-0.294638 0.493692,-0.49388 0.05139,-0.111231 0.06294,-0.189249 0.06294,-0.425046 0,-0.257861 -0.0087,-0.306457 -0.08088,-0.453505 C 16.745365,12.196399 16.414161,12 16,12 c -0.414161,0 -0.745365,0.196399 -0.915513,0.542885 -0.07221,0.147048 -0.08088,0.195644 -0.08088,0.453505 0,0.339052 0.04963,0.47732 0.248975,0.693579 0.294974,0.320009 0.773735,0.410887 1.187174,0.225347 z"
     id="path2"
     transform="matrix(40,0,0,40,0,-960)" />
  <path
     style="fill:#4dcbdc;stroke-width:0.0288809"
     d="M 5.0252708,7.0036101 V 6.0216606 H 12 18.974729 V 7.0036101 7.9855596 H 12 5.0252708 Z"
     id="path3"
     transform="matrix(40,0,0,40,0,-960)" />
</svg>
