<?xml version="1.0" encoding="UTF-8" standalone="no"?>
<svg
   height="24"
   viewBox="0 -960 960 960"
   width="24"
   xmlns="http://www.w3.org/2000/svg"
   xmlns:svg="http://www.w3.org/2000/svg">
  <path
     d="M480-260q75 0 127.5-52.5T660-440q0-75-52.5-127.5T480-620q-75 0-127.5 52.5T300-440q0 75 52.5 127.5T480-260Zm0-80q-42 0-71-29t-29-71q0-42 29-71t71-29q42 0 71 29t29 71q0 42-29 71t-71 29ZM160-120q-33 0-56.5-23.5T80-200v-480q0-33 23.5-56.5T160-760h126l74-80h240l74 80h126q33 0 56.5 23.5T880-680v480q0 33-23.5 56.5T800-120H160Zm0-80h640v-480H638l-73-80H395l-73 80H160v480Zm320-240Z"
     id="path1" />
  <path
     style="fill:#4dcbdc;stroke-width:0.0288809"
     d="M 4,12.99639 V 7.0036101 H 6.035065 8.07013 L 8.9736933,6.00969 9.8772563,5.0157699 12,5.0156299 l 2.122744,-1.4e-4 0.903991,0.9940601 0.903992,0.9940601 H 17.965363 20 V 12.99639 18.98917 H 12 4 Z m 8.505415,4.490376 c 0.955389,-0.106614 1.703216,-0.428723 2.438054,-1.050136 0.76521,-0.647097 1.290833,-1.542305 1.494876,-2.545981 0.08072,-0.397079 0.07327,-1.451212 -0.01302,-1.840353 C 16.220983,11.128764 15.830108,10.428509 15.143111,9.7532046 14.368486,8.9917655 13.498381,8.6003731 12.364907,8.503509 11.96841,8.4696251 11.413938,8.5011769 11.035271,8.5791714 10.476701,8.6942204 9.8751451,8.9539145 9.4219633,9.2756436 8.9898602,9.5824081 8.4336127,10.163852 8.1529765,10.602113 c -0.2451359,0.382821 -0.4630966,0.928639 -0.5782998,1.448183 -0.086288,0.389141 -0.093747,1.443274 -0.013022,1.840353 0.1197759,0.58917 0.3426712,1.133864 0.651717,1.592617 0.9748514,1.447086 2.5768713,2.194899 4.2920433,2.0035 z"
     id="path2"
     transform="matrix(40,0,0,40,0,-960)" />
</svg>
