<?xml version="1.0" encoding="UTF-8"?>
<!DOCTYPE svg PUBLIC "-//W3C//DTD SVG 1.1//EN" "http://www.w3.org/Graphics/SVG/1.1/DTD/svg11.dtd">
<svg xmlns="http://www.w3.org/2000/svg" version="1.1" width="1039px" height="1039px" style="shape-rendering:geometricPrecision; text-rendering:geometricPrecision; image-rendering:optimizeQuality; fill-rule:evenodd; clip-rule:evenodd" xmlns:xlink="http://www.w3.org/1999/xlink">
<g><path style="opacity:0.993" fill="#b5e3f9" d="M 495.5,-0.5 C 511.167,-0.5 526.833,-0.5 542.5,-0.5C 666.232,6.39183 774.232,50.7252 866.5,132.5C 867.583,133.365 867.749,134.365 867,135.5C 842.632,160.035 818.132,184.368 793.5,208.5C 793.631,207.761 793.464,207.094 793,206.5C 684.158,119.191 560.991,89.6909 423.5,118C 307.912,146.674 218.412,211.174 155,311.5C 124.612,361.166 105.445,414.832 97.5,472.5C 95.3636,483.599 94.0302,494.933 93.5,506.5C 90.622,564.501 95.4553,621.835 108,678.5C 108.464,677.906 108.631,677.239 108.5,676.5C 121.48,729.958 143.814,779.124 175.5,824C 162.027,838.64 148.027,852.806 133.5,866.5C 59.8145,785.091 16.3145,689.425 3,579.5C 1.7108,566.022 0.544131,552.689 -0.5,539.5C -0.5,525.833 -0.5,512.167 -0.5,498.5C 10.0338,332.574 81.0338,199.408 212.5,99C 296.995,38.3322 391.329,5.16554 495.5,-0.5 Z"/></g>
<g><path style="opacity:0.996" fill="#15a64b" d="M 793.5,208.5 C 744.881,256.785 696.215,305.118 647.5,353.5C 557.462,289.213 458.795,271.38 351.5,300C 283.861,320.883 226.695,357.717 180,410.5C 130.129,474.104 105.296,546.604 105.5,628C 105.908,644.209 106.908,660.375 108.5,676.5C 108.631,677.239 108.464,677.906 108,678.5C 95.4553,621.835 90.622,564.501 93.5,506.5C 96.0833,495.46 97.4166,484.127 97.5,472.5C 105.445,414.832 124.612,361.166 155,311.5C 218.412,211.174 307.912,146.674 423.5,118C 560.991,89.6909 684.158,119.191 793,206.5C 793.464,207.094 793.631,207.761 793.5,208.5 Z"/></g>
<g><path style="opacity:0.992" fill="#15a64b" d="M 1038.5,493.5 C 1038.5,510.5 1038.5,527.5 1038.5,544.5C 1028.22,695.232 966.217,819.732 852.5,918C 762.183,991.841 658.516,1032.01 541.5,1038.5C 526.5,1038.5 511.5,1038.5 496.5,1038.5C 411.002,1034.44 331.335,1010.78 257.5,967.5C 270.861,953.306 284.694,939.639 299,926.5C 343.351,948.13 390.184,960.463 439.5,963.5C 440.609,964.29 441.942,964.79 443.5,965C 510.115,968.912 575.448,961.578 639.5,943C 695.304,925.273 745.637,897.94 790.5,861C 800.636,853.031 809.969,844.198 818.5,834.5C 872.818,781.264 910.318,717.597 931,643.5C 958.832,534.503 946.999,430.17 895.5,330.5C 918.965,306.535 942.632,282.701 966.5,259C 967.635,258.251 968.635,258.417 969.5,259.5C 1010.83,332.162 1033.83,410.162 1038.5,493.5 Z"/></g>
<g><path style="opacity:0.999" fill="#b5e3f9" d="M 895.5,330.5 C 946.999,430.17 958.832,534.503 931,643.5C 910.318,717.597 872.818,781.264 818.5,834.5C 818.5,692.167 818.5,549.833 818.5,407.5C 843.833,381.5 869.5,355.833 895.5,330.5 Z"/></g>
<g><path style="opacity:0.993" fill="#b4e3f9" d="M 818.5,407.5 C 818.5,549.833 818.5,692.167 818.5,834.5C 809.969,844.198 800.636,853.031 790.5,861C 745.637,897.94 695.304,925.273 639.5,943C 575.448,961.578 510.115,968.912 443.5,965C 441.942,964.79 440.609,964.29 439.5,963.5C 509.493,954.123 572.826,928.623 629.5,887C 677.93,852.248 716.764,809.082 746,757.5C 780.012,694.419 789.678,627.753 775,557.5C 769.806,529.751 761.306,503.085 749.5,477.5C 771.796,453.537 794.796,430.204 818.5,407.5 Z"/></g>
<g><path style="opacity:0.995" fill="#1b72e9" d="M 436.5,445.5 C 515.342,445.979 572.176,481.313 607,551.5C 633.15,618.783 624.15,680.783 580,737.5C 528.512,792.878 466.012,811.045 392.5,792C 328.746,770.248 288.58,726.748 272,661.5C 258.531,585.88 282.031,524.713 342.5,478C 370.965,458.679 402.299,447.846 436.5,445.5 Z"/></g>
<g><path style="opacity:1" fill="#2f9d5f" d="M 97.5,472.5 C 97.4166,484.127 96.0833,495.46 93.5,506.5C 94.0302,494.933 95.3636,483.599 97.5,472.5 Z"/></g>
</svg>
