<?xml version="1.0" encoding="UTF-8" standalone="no"?>
<svg
   height="24"
   viewBox="0 -960 960 960"
   width="24"
   xmlns="http://www.w3.org/2000/svg"
   xmlns:svg="http://www.w3.org/2000/svg">
  <path
     d="M480-120q-151 0-255.5-46.5T120-280v-400q0-66 105.5-113T480-840q149 0 254.5 47T840-680v400q0 67-104.5 113.5T480-120Zm0-479q89 0 179-25.5T760-679q-11-29-100.5-55T480-760q-91 0-178.5 25.5T200-679q14 30 101.5 55T480-599Zm0 199q42 0 81-4t74.5-11.5q35.5-7.5 67-18.5t57.5-25v-120q-26 14-57.5 25t-67 18.5Q600-528 561-524t-81 4q-42 0-82-4t-75.5-11.5Q287-543 256-554t-56-25v120q25 14 56 25t66.5 18.5Q358-408 398-404t82 4Zm0 200q46 0 93.5-7t87.5-18.5q40-11.5 67-26t32-29.5v-98q-26 14-57.5 25t-67 18.5Q600-328 561-324t-81 4q-42 0-82-4t-75.5-11.5Q287-343 256-354t-56-25v99q5 15 31.5 29t66.5 25.5q40 11.5 88 18.5t94 7Z"
     id="path1" />
  <path
     style="fill:#4dcbdc;stroke-width:0.0288809"
     d="m 11.205776,13.972462 c -0.135018,-0.0047 -0.493872,-0.02794 -0.797453,-0.05162 C 8.3899012,13.763361 6.6650916,13.342075 5.357025,12.687054 l -0.3173138,-0.158896 -0.00748,-1.477076 c -0.00412,-0.812391 -6.498e-4,-1.4770748 0.0077,-1.4770748 0.00835,0 0.1546785,0.069922 0.325172,0.1553818 1.2943672,0.648802 3.0084411,1.05902 5.1619738,1.23538 0.559819,0.04585 2.358691,0.04634 2.916967,8.02e-4 2.152525,-0.175581 3.961333,-0.616521 5.305147,-1.2932545 0.107369,-0.05407 0.202039,-0.098309 0.210378,-0.098309 0.0083,0 0.01516,0.6637555 0.01516,1.4750125 v 1.475012 l -0.382671,0.182379 c -1.903821,0.907352 -4.569542,1.364272 -7.386282,1.266051 z"
     id="path2"
     transform="matrix(40,0,0,40,0,-960)" />
  <path
     style="fill:#4dcbdc;stroke-width:0.0288809"
     d="M 11.624549,9.0051801 C 10.096746,8.9724581 8.4608439,8.6928468 7.0180505,8.2178287 5.9776431,7.8752904 5.2625798,7.468657 5.0692064,7.1095843 L 5.0147343,7.0084358 5.0980397,6.8977197 C 5.446817,6.4341808 6.2837002,6.0142238 7.6176341,5.6333599 10.691132,4.755817 13.909195,4.8169493 16.938628,5.8104271 c 1.078042,0.3535352 1.752317,0.7263879 1.980085,1.0949249 0.05456,0.088271 0.05771,0.1110799 0.02598,0.1876768 -0.07885,0.1903629 -0.41726,0.4650883 -0.826686,0.6711144 -1.222229,0.6150354 -3.604496,1.1602929 -5.322808,1.2182941 -0.246748,0.00833 -0.539608,0.018384 -0.6508,0.022345 -0.111191,0.00396 -0.345126,0.00414 -0.519855,3.977e-4 z"
     id="path3"
     transform="matrix(40,0,0,40,0,-960)" />
  <path
     style="fill:#4dcbdc;stroke-width:0.0288809"
     d="M 11.061372,18.960259 C 8.6511942,18.794741 6.1045377,18.094728 5.3157715,17.380936 5.0039295,17.098735 5.0252708,17.214755 5.0252708,15.801645 c 0,-0.677186 0.00975,-1.231199 0.021661,-1.23114 0.011913,5.9e-5 0.067148,0.02792 0.1227437,0.0619 0.1673669,0.102318 0.7635155,0.363844 1.1426905,0.50129 1.1635798,0.421782 2.4862299,0.685005 4.156948,0.82728 0.564708,0.04809 2.462839,0.04879 3.032491,0.0011 2.062838,-0.172621 3.724159,-0.571036 5.094397,-1.22173 0.196865,-0.09349 0.362569,-0.169975 0.368231,-0.169975 0.0057,0 0.01025,0.549098 0.01019,1.220217 -1.01e-4,1.139104 -0.0037,1.225976 -0.05382,1.306859 -0.142593,0.230028 -0.437976,0.451682 -0.923184,0.692751 -1.0831,0.538124 -2.803663,0.957338 -4.683541,1.141143 -0.419451,0.04101 -1.815505,0.05892 -2.252707,0.02889 z"
     id="path4"
     transform="matrix(40,0,0,40,0,-960)" />
</svg>
