<svg xmlns="http://www.w3.org/2000/svg" data-name="Layer 1" viewBox="0 0 95 95" x="0px" y="0px"><path d="M61.389,77.7V39.678a2.179,2.179,0,1,1,4.358,0V77.7a2.179,2.179,0,0,1-4.358,0ZM45.1,77.7V39.678a2.18,2.18,0,1,1,4.359,0V77.7a2.18,2.18,0,0,1-4.359,0Zm-16.287,0V39.678a2.18,2.18,0,0,1,4.36,0V77.7a2.18,2.18,0,0,1-4.36,0ZM77.676,85V21.275H16.891V85a9.015,9.015,0,0,0,9,9H68.672a9.015,9.015,0,0,0,9-9Zm-70.2-68.08H87.528a2.18,2.18,0,0,0,0-4.359H60.509V6.9a5.9,5.9,0,0,0-5.9-5.9H40.39a5.9,5.9,0,0,0-5.9,5.9v5.659H7.472a2.18,2.18,0,0,0,0,4.359Z" style="" fill-rule="evenodd"></path></svg>