<?xml version="1.0" encoding="UTF-8" standalone="no"?>
<svg
   height="24"
   viewBox="0 -960 960 960"
   width="24"
   xmlns="http://www.w3.org/2000/svg"
   xmlns:svg="http://www.w3.org/2000/svg">
  <path
     d="m352-522 86-87-56-57-44 44-56-56 43-44-45-45-87 87 159 158Zm328 329 87-87-45-45-44 43-56-56 43-44-57-56-86 86 158 159Zm24-567 57 57-57-57ZM290-120H120v-170l175-175L80-680l200-200 216 216 151-152q12-12 27-18t31-6q16 0 31 6t27 18l53 54q12 12 18 27t6 31q0 16-6 30.5T816-647L665-495l215 215L680-80 465-295 290-120Zm-90-80h56l392-391-57-57-391 392v56Zm420-419-29-29 57 57-28-28Z"
     id="path1" />
  <path
     style="fill:#4dcbdc;stroke-width:0.0288809"
     d="M 6.8224292,8.9596139 4.8519177,6.9889448 5.92057,5.9205853 6.9892223,4.8522257 7.5449593,5.4079627 8.1006963,5.9636998 7.5738139,6.4911603 C 7.2840285,6.7812636 7.0469314,7.0313914 7.0469314,7.0469999 c 0,0.015608 0.3150518,0.3436278 0.700115,0.7289317 L 8.4471616,8.4764843 8.9971965,7.9269921 9.5472315,7.3774995 10.235641,8.0713672 10.92405,8.7652347 9.9699466,9.7400182 C 9.4451899,10.276149 8.9656904,10.763285 8.9043919,10.822542 l -0.1114513,0.107741 z"
     id="path2"
     transform="matrix(40,0,0,40,0,-960)" />
  <path
     style="fill:#4dcbdc;stroke-width:0.0288809"
     d="m 15.032524,17.169709 -1.963706,-1.963866 1.068295,-1.068588 1.068296,-1.068588 0.68616,0.685714 c 0.377389,0.377142 0.682887,0.694501 0.678884,0.70524 -0.004,0.01074 -0.240136,0.262038 -0.524744,0.558441 l -0.517467,0.538915 0.711936,0.711936 0.711937,0.711937 0.529326,-0.526526 c 0.29113,-0.28959 0.541653,-0.526526 0.556719,-0.526526 0.01507,0 0.270916,0.243777 0.568557,0.541728 l 0.541166,0.541729 -1.061451,1.061159 c -0.583797,0.583638 -1.067919,1.06116 -1.075826,1.06116 -0.0079,0 -0.898043,-0.883739 -1.978082,-1.963865 z"
     id="path3"
     transform="matrix(40,0,0,40,0,-960)" />
  <path
     style="fill:#4dcbdc;stroke-width:0.0288809"
     d="M 5.0252708,18.288777 V 17.588384 L 9.9060404,12.707678 14.78681,7.8269726 15.480144,8.5198557 16.173479,9.2127388 11.285327,14.100954 6.3971758,18.98917 H 5.7112233 5.0252708 Z"
     id="path4"
     transform="matrix(40,0,0,40,0,-960)" />
</svg>
