<?xml version="1.0" encoding="UTF-8" standalone="no"?>
<svg
   height="24px"
   viewBox="0 -960 960 960"
   width="24px"
   fill="#1f1f1f"
   version="1.1"
   id="svg1"
   sodipodi:docname="info_25dp_1F1F1F_FILL0_wght400_GRAD0_opsz20.svg"
   inkscape:version="1.3.2 (091e20e, 2023-11-25, custom)"
   xmlns:inkscape="http://www.inkscape.org/namespaces/inkscape"
   xmlns:sodipodi="http://sodipodi.sourceforge.net/DTD/sodipodi-0.dtd"
   xmlns="http://www.w3.org/2000/svg"
   xmlns:svg="http://www.w3.org/2000/svg">
  <defs
     id="defs1" />
  <sodipodi:namedview
     id="namedview1"
     pagecolor="#ffffff"
     bordercolor="#000000"
     borderopacity="0.25"
     inkscape:showpageshadow="2"
     inkscape:pageopacity="0.0"
     inkscape:pagecheckerboard="0"
     inkscape:deskcolor="#d1d1d1"
     inkscape:zoom="34.625"
     inkscape:cx="11.98556"
     inkscape:cy="12"
     inkscape:window-width="1920"
     inkscape:window-height="1027"
     inkscape:window-x="-8"
     inkscape:window-y="-8"
     inkscape:window-maximized="1"
     inkscape:current-layer="svg1" />
  <path
     d="M444-288h72v-240h-72v240Zm35.79-312q15.21 0 25.71-10.29t10.5-25.5q0-15.21-10.29-25.71t-25.5-10.5q-15.21 0-25.71 10.29t-10.5 25.5q0 15.21 10.29 25.71t25.5 10.5Zm.49 504Q401-96 331-126t-122.5-82.5Q156-261 126-330.96t-30-149.5Q96-560 126-629.5q30-69.5 82.5-122T330.96-834q69.96-30 149.5-30t149.04 30q69.5 30 122 82.5T834-629.28q30 69.73 30 149Q864-401 834-331t-82.5 122.5Q699-156 629.28-126q-69.73 30-149 30Zm-.28-72q130 0 221-91t91-221q0-130-91-221t-221-91q-130 0-221 91t-91 221q0 130 91 221t221 91Zm0-312Z"
     id="path1" />
  <path
     style="fill:#4dcbdc;stroke-width:0.0288809;fill-rule:nonzero;fill-opacity:1"
     d="M 11.426309,19.766652 C 9.5613089,19.648023 7.9480482,18.926787 6.5883711,17.603768 5.5923322,16.634583 4.9282456,15.574327 4.5525923,14.353518 c -0.4486934,-1.458177 -0.4486934,-3.248859 0,-4.7070357 C 4.8376665,8.7200399 5.343129,7.7954712 5.9737689,7.0469314 6.2575341,6.7101155 6.8331767,6.1427136 7.1594235,5.87825 7.9962715,5.1998809 9.1203414,4.6498245 10.138888,4.4202683 c 1.612548,-0.3634301 3.339749,-0.2422435 4.792247,0.336241 1.647495,0.6561458 3.170525,2.047561 4.012145,3.6654312 0.631781,1.2144916 0.916746,2.6178315 0.825813,4.0668045 -0.103367,1.647113 -0.581559,2.948485 -1.555525,4.233277 -0.281826,0.371766 -1.11978,1.20972 -1.491546,1.491546 -1.277076,0.968117 -2.589292,1.45199 -4.216607,1.554853 -0.503684,0.03184 -0.552017,0.03176 -1.079106,-0.0018 z m 1.490792,-5.968818 0.0074,-3.01083 H 12.000134 11.075812 V 13.7858 c 0,1.649338 0.0088,3.007643 0.01966,3.018455 0.01081,0.01081 0.423448,0.01623 0.916968,0.01203 l 0.897309,-0.0076 z M 12.159845,8.9937609 c 0.219653,-0.040605 0.345462,-0.10712 0.495813,-0.2621358 0.343725,-0.3543884 0.339637,-0.9283708 -0.0091,-1.2771038 -0.261853,-0.261853 -0.690336,-0.3397438 -1.022237,-0.1858256 -0.337973,0.1567339 -0.530526,0.4591117 -0.529919,0.8321635 4.31e-4,0.264755 0.0733,0.4486461 0.249936,0.6307659 0.14401,0.1484774 0.298894,0.2338007 0.480075,0.2644662 0.07274,0.012312 0.139622,0.023914 0.148618,0.025783 0.009,0.00187 0.09306,-0.010782 0.18681,-0.028113 z"
     id="path2"
     transform="matrix(40,0,0,40,0,-960)" />
</svg>
