<?xml version="1.0" encoding="UTF-8" standalone="no"?>
<svg
   height="20px"
   viewBox="0 0 24 24"
   width="20px"
   fill="#000000"
   version="1.1"
   id="svg1"
   sodipodi:docname="analysis_summary - Copy.svg"
   inkscape:version="1.3.2 (091e20e, 2023-11-25, custom)"
   xmlns:inkscape="http://www.inkscape.org/namespaces/inkscape"
   xmlns:sodipodi="http://sodipodi.sourceforge.net/DTD/sodipodi-0.dtd"
   xmlns="http://www.w3.org/2000/svg"
   xmlns:svg="http://www.w3.org/2000/svg">
  <defs
     id="defs1" />
  <sodipodi:namedview
     id="namedview1"
     pagecolor="#ffffff"
     bordercolor="#000000"
     borderopacity="0.25"
     inkscape:showpageshadow="2"
     inkscape:pageopacity="0.0"
     inkscape:pagecheckerboard="0"
     inkscape:deskcolor="#d1d1d1"
     inkscape:zoom="41.55"
     inkscape:cx="9.9879663"
     inkscape:cy="10"
     inkscape:window-width="1920"
     inkscape:window-height="1027"
     inkscape:window-x="-8"
     inkscape:window-y="-8"
     inkscape:window-maximized="1"
     inkscape:current-layer="svg1" />
  <path
     d="M 24,0 V 24 H 0 V 0 Z"
     fill="none"
     id="path1" />
  <path
     d="M 21,19 V 5 C 21,3.9 20.1,3 19,3 H 5 C 3.9,3 3,3.9 3,5 v 14 c 0,1.1 0.9,2 2,2 h 14 c 1.1,0 2,-0.9 2,-2 z M 5,19 V 5 H 19 V 19 Z M 14,7 V 9 H 7 V 7 Z m 3,4 v 2 H 7 v -2 z m -6,4 v 2 H 7 v -2 z"
     id="path2" />
  <path
     style="fill:#4dcbdc;fill-opacity:0.8;stroke-width:0.0288809"
     d="m 12,5.0108303 h 6.98917 V 12 18.98917 H 12 5.0108304 V 12 5.0108303 Z M 10.498195,9.0108304 H 14.00722 V 8 6.9891697 l -3.480144,-0.00743 c -1.9140796,-0.00409 -3.4965592,-0.00118 -3.5166208,0.00646 -0.02862,0.010896 -0.034836,0.2302443 -0.028884,1.0182618 l 0.00756,1.0043727 z M 12,13.010831 h 5.025271 V 12 10.98917 H 12 6.9747288 V 12 13.010831 Z m -2.9963904,4.007415 2.0144414,0.0074 V 16.000219 14.974752 H 9.0156444 c -1.101324,0 -2.0112372,0.0089 -2.02203,0.01962 -0.0108,0.0108 -0.016212,0.468914 -0.012036,1.01805 l 0.00756,0.998429 z"
     id="path3" />
</svg>
