<?xml version="1.0" encoding="UTF-8" standalone="no"?>
<svg
   height="24"
   viewBox="0 -960 960 960"
   width="24"
   xmlns="http://www.w3.org/2000/svg"
   xmlns:svg="http://www.w3.org/2000/svg">
  <path
     d="M200-200h57l391-391-57-57-391 391v57Zm-80 80v-170l528-527q12-11 26.5-17t30.5-6q16 0 31 6t26 18l55 56q12 11 17.5 26t5.5 30q0 16-5.5 30.5T817-647L290-120H120Zm640-584-56-56 56 56Zm-141 85-28-29 57 57-29-28Z"
     id="path1" />
  <path
     style="fill:#4dcbdc;stroke-width:0.0288809"
     d="m 5.0108303,18.288777 v -0.700393 l 4.8790588,-4.878995 4.8790589,-4.8789949 0.700329,0.700329 0.700329,0.700329 -4.878995,4.8790589 -4.8789946,4.879059 H 5.7112234 5.0108303 Z"
     id="path2"
     transform="matrix(40,0,0,40,0,-960)" />
</svg>
