<?xml version="1.0" encoding="UTF-8"?>
<svg width="1200pt" height="1200pt" version="1.1" viewBox="0 0 1200 1200" xmlns="http://www.w3.org/2000/svg">
 <g>
  <path d="m900 1050h-600c-39.781 0-77.938-15.805-106.07-43.934s-43.934-66.285-43.934-106.07v-600c0-39.781 15.805-77.938 43.934-106.07s66.285-43.934 106.07-43.934h200c17.863 0 34.371 9.5312 43.301 25 8.9336 15.469 8.9336 34.531 0 50-8.9297 15.469-25.438 25-43.301 25h-200c-13.262 0-25.98 5.2695-35.355 14.645s-14.645 22.094-14.645 35.355v600c0 13.262 5.2695 25.98 14.645 35.355s22.094 14.645 35.355 14.645h600c13.262 0 25.98-5.2695 35.355-14.645s14.645-22.094 14.645-35.355v-200c0-17.863 9.5312-34.371 25-43.301 15.469-8.9336 34.531-8.9336 50 0 15.469 8.9297 25 25.438 25 43.301v200c0 39.781-15.805 77.938-43.934 106.07s-66.285 43.934-106.07 43.934z"/>
  <path d="m1050 202.5v250c-0.050781 9.8711-3.0195 19.508-8.5352 27.691-5.5156 8.1875-13.332 14.559-22.465 18.309-5.9336 2.8008-12.441 4.168-19 4-13.289 0.078125-26.062-5.1406-35.5-14.5l-92-88-239.5 239.5c-9.3867 9.4648-22.168 14.789-35.5 14.789s-26.113-5.3242-35.5-14.789c-9.4648-9.3867-14.789-22.168-14.789-35.5s5.3242-26.113 14.789-35.5l238-241-88-89.5c-7.1914-6.8633-12.172-15.711-14.312-25.422-2.1367-9.707-1.332-19.828 2.3125-29.078 3.9883-9.7891 10.977-18.062 19.957-23.633 8.9844-5.5703 19.504-8.1484 30.043-7.3672h250c4.1367-0.71875 8.3633-0.71875 12.5 0 2.3125-0.44531 4.6875-0.44531 7 0 12.125 4.7773 21.723 14.375 26.5 26.5 0.44531 2.3125 0.44531 4.6875 0 7 2.6133 5.1094 3.9805 10.762 4 16.5z"/>
 </g>
</svg>
