<?xml version="1.0" encoding="UTF-8" standalone="no"?>
<svg
   height="24px"
   viewBox="0 -960 960 960"
   width="24px"
   fill="#1f1f1f"
   version="1.1"
   id="svg1"
   sodipodi:docname="fact_check_24dp_1F1F1F_FILL0_wght400_GRAD0_opsz24.svg"
   inkscape:version="1.3.2 (091e20e, 2023-11-25, custom)"
   xmlns:inkscape="http://www.inkscape.org/namespaces/inkscape"
   xmlns:sodipodi="http://sodipodi.sourceforge.net/DTD/sodipodi-0.dtd"
   xmlns="http://www.w3.org/2000/svg"
   xmlns:svg="http://www.w3.org/2000/svg">
  <defs
     id="defs1" />
  <sodipodi:namedview
     id="namedview1"
     pagecolor="#ffffff"
     bordercolor="#000000"
     borderopacity="0.25"
     inkscape:showpageshadow="2"
     inkscape:pageopacity="0.0"
     inkscape:pagecheckerboard="0"
     inkscape:deskcolor="#d1d1d1"
     inkscape:zoom="34.625"
     inkscape:cx="11.98556"
     inkscape:cy="12"
     inkscape:window-width="1920"
     inkscape:window-height="1027"
     inkscape:window-x="-8"
     inkscape:window-y="-8"
     inkscape:window-maximized="1"
     inkscape:current-layer="svg1" />
  <path
     d="M160-120q-33 0-56.5-23.5T80-200v-560q0-33 23.5-56.5T160-840h640q33 0 56.5 23.5T880-760v560q0 33-23.5 56.5T800-120H160Zm0-80h640v-560H160v560Zm40-80h200v-80H200v80Zm382-80 198-198-57-57-141 142-57-57-56 57 113 113Zm-382-80h200v-80H200v80Zm0-160h200v-80H200v80Zm-40 400v-560 560Z"
     id="path1" />
  <path
     style="fill:#4dcbdc;stroke-width:0.0288809"
     d="M 4,12 V 5.0108303 h 8 8 V 12 18.98917 H 12 4 Z m 6.00722,4 V 14.974729 H 7.4945848 4.9819495 V 16 17.025271 H 7.4945848 10.00722 Z m 7.025411,-3.473064 2.476548,-2.476674 -0.720603,-0.7201704 -0.720603,-0.720171 -1.761023,1.7744624 -1.761023,1.774462 -0.710412,-0.708281 -0.710413,-0.70828 -0.713736,0.71583 -0.713736,0.715829 1.414612,1.414834 c 0.778037,0.778158 1.421189,1.414833 1.429227,1.414833 0.008,0 1.12906,-1.114503 2.491162,-2.476674 z M 10.00722,12 V 10.98917 H 7.4945848 4.9819495 V 12 13.01083 H 7.4945848 10.00722 Z m 0,-4 V 6.9747292 H 7.4945848 4.9819495 V 8 9.0252708 H 7.4945848 10.00722 Z"
     id="path2"
     transform="matrix(40,0,0,40,0,-960)" />
</svg>
