<?xml version="1.0" encoding="UTF-8" standalone="no"?>
<svg
   height="24px"
   viewBox="0 -960 960 960"
   width="24px"
   fill="#1f1f1f"
   version="1.1"
   id="svg1"
   sodipodi:docname="file_copy.svg"
   inkscape:version="1.3.2 (091e20e, 2023-11-25, custom)"
   xmlns:inkscape="http://www.inkscape.org/namespaces/inkscape"
   xmlns:sodipodi="http://sodipodi.sourceforge.net/DTD/sodipodi-0.dtd"
   xmlns="http://www.w3.org/2000/svg"
   xmlns:svg="http://www.w3.org/2000/svg">
  <defs
     id="defs1" />
  <sodipodi:namedview
     id="namedview1"
     pagecolor="#ffffff"
     bordercolor="#000000"
     borderopacity="0.25"
     inkscape:showpageshadow="2"
     inkscape:pageopacity="0.0"
     inkscape:pagecheckerboard="0"
     inkscape:deskcolor="#d1d1d1"
     inkscape:zoom="34.625"
     inkscape:cx="11.98556"
     inkscape:cy="12"
     inkscape:window-width="1920"
     inkscape:window-height="1027"
     inkscape:window-x="1912"
     inkscape:window-y="-8"
     inkscape:window-maximized="1"
     inkscape:current-layer="svg1" />
  <path
     d="M760-200H320q-33 0-56.5-23.5T240-280v-560q0-33 23.5-56.5T320-920h280l240 240v400q0 33-23.5 56.5T760-200ZM560-640v-200H320v560h440v-360H560ZM160-40q-33 0-56.5-23.5T80-120v-560h80v560h440v80H160Zm160-800v200-200 560-560Z"
     id="path1" />
  <path
     style="fill:#00ffff;stroke-width:0.0288809"
     d="M 8.0144404,10.00722 V 3.0180505 h 2.9891696 2.98917 v 2.498195 2.4981949 h 2.498195 2.498195 V 12.505415 16.99639 H 13.501805 8.0144404 Z"
     id="path2"
     transform="matrix(40,0,0,40,0,-960)" />
  <path
     style="fill:#4dcbdc;stroke-width:0.0288809;fill-opacity:1"
     d="M 8.0144404,10.00722 V 3.0180505 h 2.9891696 2.98917 v 2.498195 2.4981949 h 2.498195 2.498195 V 12.505415 16.99639 H 13.501805 8.0144404 Z"
     id="path3"
     transform="matrix(40,0,0,40,0,-960)" />
</svg>
