<?xml version="1.0" encoding="UTF-8" standalone="no"?>
<svg
   height="24"
   viewBox="0 -960 960 960"
   width="24"
   version="1.1"
   id="svg1"
   xmlns:sodipodi="http://sodipodi.sourceforge.net/DTD/sodipodi-0.dtd"
   xmlns="http://www.w3.org/2000/svg"
   xmlns:svg="http://www.w3.org/2000/svg">
  <defs
     id="defs1" />
  <sodipodi:namedview
     id="namedview1"
     pagecolor="#ffffff"
     bordercolor="#000000"
     borderopacity="0.25"/>
  <path
     d="M320-240h320v-80H320v80Zm0-160h320v-80H320v80ZM240-80q-33 0-56.5-23.5T160-160v-640q0-33 23.5-56.5T240-880h320l240 240v480q0 33-23.5 56.5T720-80H240Zm280-520v-200H240v640h480v-440H520ZM240-800v200-200 640-640Z"
     id="path1" />
  <path
     style="fill:#4dcbdc;stroke-width:0.0288809"
     d="M 6.0216606,12 V 4 h 3.4801445 3.4801439 v 2.5126354 2.5126354 h 2.498195 2.498195 V 14.512635 20 H 12 6.0216606 Z M 16.01444,16.99639 V 15.98556 H 12 7.9855596 v 1.01083 1.01083 H 12 16.01444 Z m 0,-3.98556 V 12 H 12 7.9855596 v 1.01083 1.010831 H 12 16.01444 Z"
     id="path2"
     transform="matrix(40,0,0,40,0,-960)" />
</svg>
