<?xml version="1.0" encoding="UTF-8" standalone="no"?>
<svg
   height="24"
   viewBox="0 -960 960 960"
   width="24"
   xmlns="http://www.w3.org/2000/svg"
   xmlns:svg="http://www.w3.org/2000/svg">
  <path
     d="M160-160q-33 0-56.5-23.5T80-240v-480q0-33 23.5-56.5T160-800h240l80 80h320q33 0 56.5 23.5T880-640v400q0 33-23.5 56.5T800-160H160Zm0-80h640v-400H447l-80-80H160v480Zm0 0v-480 480Z"
     id="path1"
     style="fill:#000000" />
  <path
     style="fill:#4dcbdc;fill-opacity:1;stroke-width:0.0288809"
     d="M 4.0144404,12 V 6.0216606 H 6.5922147 9.169989 l 0.996076,0.9963899 0.996076,0.9963899 h 4.411709 4.41171 V 12.99639 17.978339 H 12 4.0144404 Z"
     id="path2"
     transform="matrix(40,0,0,40,0,-960)" />
</svg>
