<svg xmlns="http://www.w3.org/2000/svg" xmlns:xlink="http://www.w3.org/1999/xlink" version="1.1" x="0px" y="0px" viewBox="0 0 708.7 708.7" style="enable-background:new 0 0 708.7 708.7;" xml:space="preserve"><g><path d="M500.4,403.1l-15-26l38.9-22.5L432,301.3l15-26l114.9,66.3c4.6,2.7,7.5,7.6,7.5,13c0,5.4-2.9,10.3-7.5,13L500.4,403.1z"></path></g><g><path d="M354.3,485.2c-2.6,0-5.2-0.7-7.5-2L146.8,367.7c-4.6-2.7-7.5-7.6-7.5-13c0-5.4,2.9-10.3,7.5-13l114.9-66.3l15,26   l-92.4,53.3l170.1,98.2l131.1-75.7l15,26l-138.6,80C359.5,484.5,356.9,485.2,354.3,485.2z"></path></g><g><path d="M353.8,401.8c-3.5,0-7-1.2-9.9-3.7l-1.3-1.2c-3.4-3-83.5-73.8-105.6-141.6c-4.4-12.9-6.7-26.4-6.7-40.2   c0-68.2,55.5-123.6,123.6-123.6c68.2,0,123.6,55.5,123.6,123.6c0,16.2-3.1,32-9.2,46.9c-24.9,65.7-100.1,132.1-103.2,134.9   c-0.2,0.1-0.3,0.3-0.5,0.4l-1.4,1.2C360.4,400.7,357.1,401.8,353.8,401.8z M353.9,121.5c-51.6,0-93.6,42-93.6,93.6   c0,10.4,1.7,20.7,5.1,30.4c0,0.1,0,0.1,0.1,0.2c0,0.1,0,0.1,0.1,0.2c15.6,48,67.7,100.9,88.4,120.5c19.8-18.9,68.8-68.5,86.5-115.1   c0.1-0.2,0.1-0.4,0.2-0.6c4.7-11.3,7-23.3,7-35.7C447.6,163.5,405.6,121.5,353.9,121.5z M454.4,256.5L454.4,256.5L454.4,256.5z    M353.9,279.4c-0.5,0-1.1,0-1.6,0c-19.6-0.5-37.7-9.7-49.6-25.4c-8.6-11.3-13.1-24.7-13.1-38.9c0-35.5,28.8-64.3,64.3-64.3   s64.3,28.8,64.3,64.3c0,14.2-4.5,27.6-13.1,38.9c-11.9,15.7-30.1,25-49.8,25.4C354.9,279.4,354.4,279.4,353.9,279.4z M353.9,180.8   c-18.9,0-34.3,15.4-34.3,34.3c0,7.6,2.4,14.7,7,20.7c6.4,8.4,16,13.3,26.5,13.6c0.5,0,1,0,1.5,0c0,0,0.1,0,0.1,0   c10.5-0.2,20.2-5.2,26.6-13.6c4.6-6,7-13.2,7-20.7C388.2,196.2,372.8,180.8,353.9,180.8z"></path></g><g><path d="M354.3,551.2c-2.6,0-5.2-0.7-7.5-2L146.8,433.7c-4.6-2.7-7.5-7.6-7.5-13s2.9-10.3,7.5-13l57.2-33l15,26l-34.7,20   l170.1,98.2l170.1-98.2l-34.7-20l15-26l57.2,33c4.6,2.7,7.5,7.6,7.5,13s-2.9,10.3-7.5,13L361.8,549.2   C359.5,550.5,356.9,551.2,354.3,551.2z"></path></g><g><path d="M354.3,617.2c-2.6,0-5.2-0.7-7.5-2L146.8,499.7c-4.6-2.7-7.5-7.6-7.5-13s2.9-10.3,7.5-13l57.2-33l15,26l-34.7,20   l170.1,98.2l170.1-98.2l-34.7-20l15-26l57.2,33c4.6,2.7,7.5,7.6,7.5,13s-2.9,10.3-7.5,13L361.8,615.2   C359.5,616.5,356.9,617.2,354.3,617.2z"></path></g></svg>