<?xml version="1.0" encoding="UTF-8" standalone="no"?>
<svg
   height="24px"
   viewBox="0 -960 960 960"
   width="24px"
   fill="#1f1f1f"
   version="1.1"
   id="svg1"
   sodipodi:docname="globe.svg"
   inkscape:version="1.3.2 (091e20e, 2023-11-25, custom)"
   xmlns:inkscape="http://www.inkscape.org/namespaces/inkscape"
   xmlns:sodipodi="http://sodipodi.sourceforge.net/DTD/sodipodi-0.dtd"
   xmlns="http://www.w3.org/2000/svg"
   xmlns:svg="http://www.w3.org/2000/svg">
  <defs
     id="defs1" />
  <sodipodi:namedview
     id="namedview1"
     pagecolor="#ffffff"
     bordercolor="#000000"
     borderopacity="0.25"
     inkscape:showpageshadow="2"
     inkscape:pageopacity="0.0"
     inkscape:pagecheckerboard="0"
     inkscape:deskcolor="#d1d1d1"
     inkscape:zoom="34.625"
     inkscape:cx="11.98556"
     inkscape:cy="12"
     inkscape:window-width="1920"
     inkscape:window-height="1027"
     inkscape:window-x="-8"
     inkscape:window-y="-8"
     inkscape:window-maximized="1"
     inkscape:current-layer="svg1" />
  <path
     d="M325-111.5q-73-31.5-127.5-86t-86-127.5Q80-398 80-480.5t31.5-155q31.5-72.5 86-127t127.5-86Q398-880 480.5-880t155 31.5q72.5 31.5 127 86t86 127Q880-563 880-480.5T848.5-325q-31.5 73-86 127.5t-127 86Q563-80 480.5-80T325-111.5ZM480-162q26-36 45-75t31-83H404q12 44 31 83t45 75Zm-104-16q-18-33-31.5-68.5T322-320H204q29 50 72.5 87t99.5 55Zm208 0q56-18 99.5-55t72.5-87H638q-9 38-22.5 73.5T584-178ZM170-400h136q-3-20-4.5-39.5T300-480q0-21 1.5-40.5T306-560H170q-5 20-7.5 39.5T160-480q0 21 2.5 40.5T170-400Zm216 0h188q3-20 4.5-39.5T580-480q0-21-1.5-40.5T574-560H386q-3 20-4.5 39.5T380-480q0 21 1.5 40.5T386-400Zm268 0h136q5-20 7.5-39.5T800-480q0-21-2.5-40.5T790-560H654q3 20 4.5 39.5T660-480q0 21-1.5 40.5T654-400Zm-16-240h118q-29-50-72.5-87T584-782q18 33 31.5 68.5T638-640Zm-234 0h152q-12-44-31-83t-45-75q-26 36-45 75t-31 83Zm-200 0h118q9-38 22.5-73.5T376-782q-56 18-99.5 55T204-640Z"
     id="path1" />
  <path
     style="fill:#4dcbdc;stroke-width:0.0288809"
     d="m 4.2431414,13.913357 c -0.00984,-0.04368 -0.029151,-0.124909 -0.042918,-0.180505 -0.2299627,-0.928671 -0.2299627,-2.537033 0,-3.465704 0.013767,-0.0556 0.03308,-0.136823 0.042918,-0.180505 l 0.017887,-0.07942 h 1.6921113 1.6921115 l -0.01599,0.06498 c -0.00879,0.03574 -0.039241,0.25343 -0.067659,0.483755 -0.07399,0.599683 -0.07399,2.288403 0,2.888086 0.028418,0.230325 0.058865,0.448015 0.067659,0.483755 l 0.01599,0.06498 H 5.9531396 4.2610283 Z"
     id="path2"
     transform="matrix(40,0,0,40,0,-960)" />
  <path
     style="fill:#4dcbdc;stroke-width:0.0288809"
     d="m 9.6512498,13.909679 c -0.1624993,-0.812497 -0.1624993,-3.006861 0,-3.819358 l 0.01662,-0.0831 H 12 14.33213 l 0.01662,0.0831 c 0.162499,0.812497 0.162499,3.006861 0,3.819358 l -0.01662,0.0831 H 12 9.66787 Z"
     id="path3"
     transform="matrix(40,0,0,40,0,-960)" />
  <path
     style="fill:#4dcbdc;stroke-width:0.0288809"
     d="M 9.0108303,19.396686 C 8.0541548,19.030503 7.231079,18.492215 6.4682636,17.733859 5.9465951,17.21524 5.6164702,16.806002 5.2734438,16.252708 L 5.1257252,16.01444 h 1.4576849 1.4576848 l 0.031443,0.122744 c 0.2828271,1.104078 0.6408675,2.085792 1.0811613,2.964445 0.1040935,0.20773 0.1892612,0.384374 0.1892612,0.392543 0,0.02625 -0.038009,0.01509 -0.33213,-0.09749 z"
     id="path4"
     transform="matrix(40,0,0,40,0,-960)" />
  <path
     style="fill:#4dcbdc;stroke-width:0.0288809"
     d="m 11.721418,19.516245 c -0.658246,-0.995658 -1.177827,-2.08492 -1.495523,-3.135251 -0.05673,-0.187565 -0.103151,-0.346771 -0.103151,-0.353791 0,-0.007 0.844765,-0.01276 1.877256,-0.01276 1.032491,0 1.877256,0.0057 1.877256,0.01276 0,0.007 -0.04642,0.166226 -0.103151,0.353791 -0.228424,0.755189 -0.643331,1.711089 -1.050593,2.42045 -0.196783,0.342753 -0.697269,1.111913 -0.723512,1.111913 -0.0088,0 -0.134187,-0.1787 -0.278582,-0.397112 z"
     id="path5"
     transform="matrix(40,0,0,40,0,-960)" />
  <path
     style="fill:#4dcbdc;stroke-width:0.0288809"
     d="m 14.65704,19.494172 c 0,-0.0082 0.08517,-0.184813 0.189261,-0.392543 0.386556,-0.771415 0.785654,-1.833253 1.00704,-2.67933 0.0556,-0.2125 0.106055,-0.391322 0.112114,-0.397381 0.0061,-0.0061 0.663583,-0.0076 1.461163,-0.0035 l 1.450146,0.0075 -0.246601,0.371597 c -0.352943,0.531842 -0.632407,0.871253 -1.097878,1.333381 -0.768201,0.762684 -1.616928,1.315644 -2.563515,1.670174 -0.290517,0.108809 -0.31173,0.114943 -0.31173,0.09014 z"
     id="path6"
     transform="matrix(40,0,0,40,0,-960)" />
  <path
     style="fill:#4dcbdc;stroke-width:0.0288809"
     d="m 16.372306,13.913357 c 0.167951,-0.839729 0.168489,-3.035649 9.37e-4,-3.826714 l -0.01682,-0.07942 h 1.691276 1.691275 l 0.01789,0.07942 c 0.0098,0.04368 0.02915,0.124909 0.04292,0.180505 0.229963,0.928671 0.229963,2.537033 0,3.465704 -0.01377,0.0556 -0.03308,0.136823 -0.04292,0.180505 l -0.01789,0.07942 h -1.691275 -1.691276 z"
     id="path7"
     transform="matrix(40,0,0,40,0,-960)" />
  <path
     style="fill:#4dcbdc;stroke-width:0.0288809"
     d="M 15.927462,7.8628159 C 15.644227,6.7571435 15.286654,5.7771435 14.844557,4.8948901 14.739503,4.6852453 14.659413,4.5078556 14.666577,4.5006909 c 0.02463,-0.024633 0.582988,0.1985854 0.943531,0.3772027 0.995828,0.4933445 1.838119,1.1818914 2.575073,2.1050446 0.180113,0.2256203 0.556312,0.7674526 0.671064,0.9665203 0.01653,0.028679 -0.27916,0.036101 -1.438265,0.036101 h -1.459075 z"
     id="path8"
     transform="matrix(40,0,0,40,0,-960)" />
  <path
     style="fill:#4dcbdc;stroke-width:0.0288809"
     d="m 10.122744,7.9727965 c 0,-0.00702 0.04642,-0.1662252 0.103151,-0.3537906 C 10.454319,6.8638165 10.869226,5.907917 11.276488,5.198556 11.473271,4.8558026 11.973757,4.0866426 12,4.0866426 c 0.02652,0 0.528837,0.7712593 0.724189,1.1119134 0.406522,0.7088943 0.821786,1.6662339 1.049916,2.4204499 0.05673,0.1875654 0.103151,0.3467711 0.103151,0.3537906 0,0.00702 -0.844765,0.012763 -1.877256,0.012763 -1.032491,0 -1.877256,-0.00574 -1.877256,-0.012763 z"
     id="path9"
     transform="matrix(40,0,0,40,0,-960)" />
  <path
     style="fill:#4dcbdc;stroke-width:0.0288809"
     d="M 5.2734438,7.7472924 C 5.6152971,7.1958898 5.9450522,6.78688 6.4672574,6.266553 7.0786431,5.6573662 7.7307184,5.190945 8.4620939,4.8396718 8.7778446,4.6880194 9.3126796,4.4799478 9.3334227,4.5006909 9.3405871,4.5078556 9.2604968,4.6852453 9.1554435,4.8948901 8.7133456,5.7771435 8.3557733,6.7571435 8.0725378,7.8628159 L 8.0410949,7.9855596 H 6.5834101 5.1257252 Z"
     id="path10"
     transform="matrix(40,0,0,40,0,-960)" />
</svg>
