<?xml version="1.0" encoding="UTF-8" standalone="no"?>
<svg
   height="24"
   viewBox="0 -960 960 960"
   width="24"
   xmlns="http://www.w3.org/2000/svg"
   xmlns:svg="http://www.w3.org/2000/svg">
  <path
     d="M478-240q21 0 35.5-14.5T528-290q0-21-14.5-35.5T478-340q-21 0-35.5 14.5T428-290q0 21 14.5 35.5T478-240Zm-36-154h74q0-33 7.5-52t42.5-52q26-26 41-49.5t15-56.5q0-56-41-86t-97-30q-57 0-92.5 30T342-618l66 26q5-18 22.5-39t53.5-21q32 0 48 17.5t16 38.5q0 20-12 37.5T506-526q-44 39-54 59t-10 73Zm38 314q-83 0-156-31.5T197-197q-54-54-85.5-127T80-480q0-83 31.5-156T197-763q54-54 127-85.5T480-880q83 0 156 31.5T763-763q54 54 85.5 127T880-480q0 83-31.5 156T763-197q-54 54-127 85.5T480-80Zm0-80q134 0 227-93t93-227q0-134-93-227t-227-93q-134 0-227 93t-93 227q0 134 93 227t227 93Zm0-320Z"
     id="path1" />
  <path
     style="fill:#4dcbdc;stroke-width:0.0288809"
     d="M 11.523466,19.967707 C 9.8940309,19.893179 8.4212621,19.355949 7.1388494,18.368308 6.7548881,18.072604 6.0273424,17.361054 5.7360894,16.99639 5.2291707,16.361701 4.7375394,15.495939 4.4814689,14.787004 3.8623972,13.073094 3.862496,10.923525 4.4817249,9.2129964 4.7415031,8.4953973 5.2220291,7.6485759 5.7354339,7.0036101 6.0227954,6.6426118 6.7521251,5.9296907 7.1388494,5.631769 8.2868407,4.7473884 9.5259844,4.2466993 11.00361,4.0701719 c 0.47544,-0.056799 1.51734,-0.056799 1.99278,0 1.479423,0.1767422 2.715373,0.6761406 3.864761,1.5615971 0.386724,0.2979217 1.116054,1.0108428 1.403415,1.3718411 0.508771,0.6391443 0.998057,1.5011717 1.254045,2.2093863 0.150202,0.4155477 0.3059,1.0519496 0.385087,1.5740076 0.05327,0.351191 0.06367,0.544613 0.06442,1.198556 9.36e-4,0.809036 -0.02475,1.095085 -0.157344,1.751986 -0.324031,1.605374 -1.20035,3.094547 -2.506956,4.260197 -1.597912,1.425531 -3.501283,2.074206 -5.780353,1.969964 z m 0.959089,-2.067831 c 0.469451,-0.219682 0.718815,-0.61753 0.720451,-1.149445 0.0016,-0.528111 -0.248248,-0.925874 -0.722908,-1.150772 -0.181434,-0.08596 -0.209144,-0.09063 -0.53786,-0.0905 -0.331659,1.27e-4 -0.354771,0.0041 -0.53718,0.09327 -0.232099,0.113408 -0.479234,0.354086 -0.58465,0.569372 -0.28669,0.585498 -0.09558,1.290498 0.448328,1.65389 0.199212,0.133095 0.411988,0.18306 0.733721,0.172297 0.252668,-0.0085 0.31629,-0.02145 0.480098,-0.09811 z m 0.439721,-4.064771 c 0.02509,-0.407359 0.103008,-0.799349 0.201793,-1.015124 0.125585,-0.274314 0.3201,-0.51553 0.889975,-1.103649 0.877112,-0.905191 1.237628,-1.390941 1.403422,-1.8909324 0.213246,-0.6430938 0.185335,-1.4703469 -0.0701,-2.077719 C 15.006106,6.9362377 14.145623,6.3159627 13.031018,6.0779538 12.677235,6.0024082 11.933509,5.9720694 11.548491,6.0174771 10.479606,6.1435376 9.6202903,6.6747237 9.0105392,7.5863116 8.7390695,7.9921632 8.5057297,8.5043258 8.5660179,8.5620014 8.5980531,8.5926484 10.13734,9.198556 10.183162,9.198556 c 0.01811,0 0.06036,-0.07524 0.09389,-0.1672 0.03353,-0.09196 0.141752,-0.2901551 0.240492,-0.4404333 0.44276,-0.6738642 0.859396,-0.8886018 1.664996,-0.8581533 0.602262,0.022763 0.916973,0.1662746 1.205706,0.5498137 0.422113,0.5607139 0.38585,1.232078 -0.101306,1.8755979 -0.181004,0.2391 -0.402721,0.464116 -0.890754,0.904004 -0.644314,0.580754 -1.061575,1.080341 -1.170063,1.400918 -0.106021,0.313286 -0.193358,1.000234 -0.193561,1.522457 l -7e-5,0.180505 h 0.934702 0.934702 z"
     id="path2"
     transform="matrix(40,0,0,40,0,-960)" />
</svg>
