<svg xmlns="http://www.w3.org/2000/svg" viewBox="0 0 64 64" x="0px" y="0px"><title>html, document, file</title><g><path d="M58.26,22.65a.61.61,0,0,0-.12-.16.392.392,0,0,0-.08-.1L43.79,7.23a1.5,1.5,0,0,0-1.09-.47H19.4a1.5,1.5,0,0,0-1.5,1.5V28.25H7a1.5,1.5,0,0,0-1.5,1.5V47.73A1.5,1.5,0,0,0,7,49.23H17.9v6.51a1.5,1.5,0,0,0,1.5,1.5H57a1.5,1.5,0,0,0,1.5-1.5V23.45A1.373,1.373,0,0,0,58.26,22.65ZM21.7,36.52a1.5,1.5,0,1,1,0-3h4.74a1.5,1.5,0,1,1,0,3h-.87v5.94a1.5,1.5,0,0,1-3,0V36.52Zm-11.2-1.5a1.5,1.5,0,0,1,3,0v2.22h1.66V35.02a1.5,1.5,0,0,1,3,0v7.44a1.5,1.5,0,0,1-3,0V40.24H13.5v2.22a1.5,1.5,0,0,1-3,0Zm45,19.22H20.9V49.23H51a1.5,1.5,0,0,0,1.5-1.5V29.75a1.5,1.5,0,0,0-1.5-1.5H20.9V9.76H41.2V23.45a1.5,1.5,0,0,0,1.5,1.5H55.5ZM35.52,40.1l-.02.02a1.393,1.393,0,0,1-.28.28.209.209,0,0,1-.06.04.817.817,0,0,1-.2.12h-.01a.987.987,0,0,1-.27.1.127.127,0,0,1-.06.01,1.221,1.221,0,0,1-.62,0,.066.066,0,0,1-.06-.01.987.987,0,0,1-.27-.1h-.01a.817.817,0,0,1-.2-.12.209.209,0,0,1-.06-.04,1.393,1.393,0,0,1-.28-.28l-.02-.02-.48-.63v2.99a1.5,1.5,0,1,1-3,0V35.02a1.505,1.505,0,0,1,1.02-1.42,1.522,1.522,0,0,1,1.68.51l1.99,2.62,1.99-2.62a1.5,1.5,0,0,1,2.7.91v7.44a1.5,1.5,0,1,1-3,0V39.47ZM46,40.96a1.5,1.5,0,0,1,0,3H42.1a1.5,1.5,0,0,1-1.5-1.5V35.02a1.5,1.5,0,0,1,3,0v5.94Z"></path></g></svg>