<svg xmlns="http://www.w3.org/2000/svg" xmlns:svgjs="http://svgjs.com/svgjs" xmlns:xlink="http://www.w3.org/1999/xlink" width="288" height="288"><svg xmlns="http://www.w3.org/2000/svg" width="288" height="288" enable-background="new 0 0 90 90" viewBox="0 0 90 90"><path fill="#2d6cdf" fill-rule="evenodd" d="M35.445 13.294L21.598 29.247V37.392H24.992V31.58H37.92V16.695H65.071V37.392H68.472V13.294zM24.992 62.241H65.071V73.268L24.992 73.231V62.241zM56.265 45.419H58.806L63.369 52.799V45.419H65.618V56.892H63.405L58.493 49.185V56.892H56.265V45.419zM31.77 45.419V53.799C31.77 54.846 31.452 55.695 30.817 56.34 30.186 56.976 29.244 57.288 27.998 57.288 26.883 57.288 26.014 56.997 25.389 56.408 24.77 55.809 24.463 54.919 24.463 53.73V52.554H26.635V53.612C26.635 54.747 27.083 55.335 27.999 55.335 29.171 55.335 29.37 54.46 29.37 53.575L29.3695 45.419zM37.644 45.039C38.936 45.039 40.238 45.403 41.169 46.331 41.816 46.981 42.149 47.897 42.18 48.804H39.899C39.874 48.039 39.341 47.315 38.571 47.168 37.748 47.007 36.81 46.966 36.071 47.408 35.374 47.856 35.388 49.054 36.155 49.424 37.054 49.903 38.093 49.982 39.05 50.282 40.055 50.585 41.175 50.85 41.904 51.664 42.581 52.539 42.669 53.752 42.404 54.794 42.04 56.018 40.888 56.835 39.68 57.102 38.483 57.398 37.206 57.321 36.008 57.044 34.816 56.778 33.753 56.023 33.325 54.747 33.212 54.408 33.106 53.449 33.106 53.449H35.419C35.393 54.325 36.111 55.039 36.925 55.225 37.784 55.429 38.758 55.423 39.545 54.987 40.258 54.601 40.44 53.533 39.914 52.929 39.242 52.309 38.264 52.287 37.419 52.054 36.195 51.751 34.841 51.47 33.982 50.475 33.315 49.659 33.252 48.496 33.487 47.506 33.809 46.189 35.102 45.372 36.367 45.148 36.785 45.075 37.212 45.039 37.644 45.039zM49.139 45.033C49.801 45.023 50.457 45.112 51.087 45.279 52.331 45.621 53.415 46.497 53.983 47.664 54.825 49.356 54.904 51.34 54.592 53.179 54.33 54.685 53.425 56.127 51.991 56.763 51.149 57.154 50.206 57.288 49.278 57.288 47.68 57.314 45.971 56.799 44.971 55.481 43.825 54.001 43.658 52.017 43.815 50.21 43.961 48.579 44.643 46.891 46.039 45.944 46.957 45.331 48.046 45.05 49.139 45.033zM17.696 40.085V62.241H21.597V76.627L68.472 76.672V62.241H72.373V40.085z" class="color000 svgShape" clip-rule="evenodd"/><path fill="#2d6cdf" fill-rule="evenodd" d="M49.259,47.159c-0.912,0.005-1.833,0.348-2.36,1.123  c-0.813,1.184-0.839,2.715-0.703,4.09c0.109,1.006,0.568,2.082,1.536,2.531c0.475,0.239,1.016,0.327,1.546,0.327  c1.115,0.043,2.209-0.614,2.662-1.634c0.573-1.24,0.537-2.673,0.276-3.98c-0.213-1.066-0.947-2.104-2.057-2.348  C49.869,47.194,49.566,47.159,49.259,47.159z" class="color000 svgShape" clip-rule="evenodd"/></svg></svg>