<?xml version="1.0" encoding="UTF-8" standalone="no"?>
<svg
   height="24px"
   viewBox="0 -960 960 960"
   width="24px"
   fill="#1f1f1f"
   version="1.1"
   id="svg1"
   sodipodi:docname="lock_open_24dp_1F1F1F_FILL0_wght400_GRAD0_opsz24.svg"
   xmlns:sodipodi="http://sodipodi.sourceforge.net/DTD/sodipodi-0.dtd"
   xmlns="http://www.w3.org/2000/svg"
   xmlns:svg="http://www.w3.org/2000/svg">
  <defs
     id="defs1" />
  <sodipodi:namedview
     id="namedview1"
     pagecolor="#ffffff"
     bordercolor="#000000"
     borderopacity="0.25" />
  <path
     d="M240-640h360v-80q0-50-35-85t-85-35q-50 0-85 35t-35 85h-80q0-83 58.5-141.5T480-920q83 0 141.5 58.5T680-720v80h40q33 0 56.5 23.5T800-560v400q0 33-23.5 56.5T720-80H240q-33 0-56.5-23.5T160-160v-400q0-33 23.5-56.5T240-640Zm0 480h480v-400H240v400Zm240-120q33 0 56.5-23.5T560-360q0-33-23.5-56.5T480-440q-33 0-56.5 23.5T400-360q0 33 23.5 56.5T480-280ZM240-160v-400 400Z"
     id="path1" />
  <path
     style="fill:#4dcbdc;stroke-width:0.0288809"
     d="M 6.0216606,15.00361 V 10.00722 H 12 17.978339 V 15.00361 20 H 12 6.0216606 Z m 6.5260614,1.931673 c 0.668591,-0.178767 1.227282,-0.750984 1.406645,-1.440698 0.06553,-0.251985 0.06387,-0.758122 -0.0033,-1.01083 -0.176493,-0.663883 -0.761899,-1.249836 -1.4312,-1.432539 -0.129018,-0.03522 -0.291594,-0.05124 -0.519856,-0.05124 -0.228262,0 -0.390838,0.01603 -0.519856,0.05124 -0.663776,0.181195 -1.263552,0.778063 -1.425006,1.418098 -0.1362583,0.540156 -0.059291,1.099243 0.215557,1.565803 0.131169,0.222662 0.488462,0.575384 0.718685,0.709492 0.457766,0.266654 1.017864,0.335186 1.558342,0.190674 z"
     id="path2"
     transform="matrix(40,0,0,40,0,-960)" />
</svg>
