<svg xmlns="http://www.w3.org/2000/svg" xmlns:xlink="http://www.w3.org/1999/xlink" version="1.1" x="0px" y="0px" viewBox="0 0 100 100" enable-background="new 0 0 100 100" xml:space="preserve"><path d="M100,29.167h-8.333v12.5H100V29.167z M70.833,0h-12.5v8.333h12.5V0z M100,50h-8.333v4.167c0,6.25-2.083,8.333-8.333,8.333  h-4.167v8.333h6.25c8.333,0,14.583-6.25,14.583-14.583V50z M50,0h-6.25c-8.333,0-14.583,6.25-14.583,14.583v6.25H37.5v-4.167  c0-6.25,2.083-8.333,8.333-8.333H50V0z M56.25,29.167H50V37.5h4.167c6.25,0,8.333,2.083,8.333,8.333V50h8.333v-6.25  C70.833,35.417,64.583,29.167,56.25,29.167z M70.833,58.333H62.5v12.5h8.333V58.333z M41.667,29.167h-12.5V37.5h12.5V29.167z   M41.667,29.167h-12.5V37.5h12.5V29.167z M70.833,79.167H62.5v4.167c0,6.25-2.083,8.333-8.333,8.333H50V100h6.25  c8.333,0,14.583-6.25,14.583-14.583V79.167z M20.833,29.167h-6.25C6.25,29.167,0,35.417,0,43.75V50h8.333v-4.167  c0-6.25,2.083-8.333,8.333-8.333h4.167V29.167z M8.333,58.333H0v12.5h8.333V58.333z M41.667,91.667h-12.5V100h12.5V91.667z   M8.333,79.167H0v6.25C0,93.75,6.25,100,14.583,100h6.25v-8.333h-4.167c-6.25,0-8.333-2.083-8.333-8.333V79.167z M85.417,0h-6.25  v8.333h4.167c6.25,0,8.333,2.083,8.333,8.333v4.167H100v-6.25C100,6.25,93.75,0,85.417,0z"></path></svg>