<svg xmlns="http://www.w3.org/2000/svg" xmlns:xlink="http://www.w3.org/1999/xlink" version="1.1" x="0px" y="0px" viewBox="0 0 100 100" enable-background="new 0 0 100 100" xml:space="preserve"><path d="M100,29.167h-8.333v16.667H100V29.167z M70.833,0H54.167v8.333h16.667V0z M70.833,0H54.167v8.333h16.667V0z M100,54.167  h-8.333v16.667H100V54.167z M45.833,0H29.167v8.333h16.667V0z M45.833,0H29.167v8.333h16.667V0z M100,79.167h-8.333V82.5  c0,5.833-3.333,9.167-9.167,9.167h-3.333V100H83c10.667,0,17-6.333,17-17V79.167z M20.833,0H17C6.333,0,0,6.333,0,17v3.833h8.333  V17.5c0-5.833,3.333-9.167,9.167-9.167h3.333V0z M8.333,29.167H0v16.667h8.333V29.167z M70.833,91.667H54.167V100h16.667V91.667z   M70.833,91.667H54.167V100h16.667V91.667z M8.333,54.167H0v16.667h8.333V54.167z M45.833,91.667H29.167V100h16.667V91.667z   M45.833,91.667H29.167V100h16.667V91.667z M8.333,79.167H0V83c0,10.667,6.333,17,17,17h3.833v-8.333H17.5  c-5.833,0-9.167-3.333-9.167-9.167V79.167z M83,0h-3.833v8.333H82.5c5.833,0,9.167,3.333,9.167,9.167v3.333H100V17  C100,6.333,93.667,0,83,0z"></path></svg>