<svg xmlns="http://www.w3.org/2000/svg" xmlns:xlink="http://www.w3.org/1999/xlink" version="1.2" baseProfile="tiny" x="0px" y="0px" viewBox="0 0 100 100" xml:space="preserve"><path d="M93.1,66.8h-3.8c-0.5-10-4.7-19-11.3-25.7C78,41,77.9,41,77.8,40.9c-0.1-0.1-0.1-0.1-0.2-0.2  c-7.1-7-16.9-11.4-27.6-11.4c-10.8,0-20.5,4.3-27.6,11.4c-0.1,0.1-0.1,0.1-0.2,0.2C22.1,41,22,41,22,41.1  c-6.6,6.7-10.8,15.7-11.3,25.7H6.9c-1.1,0-1.9,0.9-1.9,1.9s0.9,1.9,1.9,1.9h5.6H50c0,0,0,0,0,0c0,0,0,0,0,0h37.5h5.6  c1.1,0,1.9-0.9,1.9-1.9S94.1,66.8,93.1,66.8z M51.1,66.8l-3.8-7.1l5.4-2.9L39,48.4l-0.4,16l5.4-2.9l2.9,5.3H14.5  c0.4-8.4,3.8-16,9.1-21.8l2.8,2.8c0.4,0.4,0.9,0.6,1.4,0.6c0.5,0,1-0.2,1.4-0.6c0.7-0.7,0.7-2,0-2.7l-2.8-2.8  c5.9-5.3,13.5-8.6,21.8-9.1v3.9c0,1.1,0.9,1.9,1.9,1.9c1.1,0,1.9-0.9,1.9-1.9v-3.9c8.4,0.4,16,3.8,21.8,9.1L71,45  c-0.7,0.7-0.7,2,0,2.7c0.4,0.4,0.9,0.6,1.4,0.6c0.5,0,1-0.2,1.4-0.6l2.8-2.8c5.3,5.9,8.6,13.5,9.1,21.8H51.1z"></path></svg>