<?xml version="1.0" encoding="UTF-8" standalone="no"?>
<svg
   height="24px"
   viewBox="0 -960 960 960"
   width="24px"
   fill="#e3e3e3"
   version="1.1"
   id="svg1"
   sodipodi:docname="none.svg"
   inkscape:version="1.4.2 (ebf0e940, 2025-05-08)"
   xmlns:inkscape="http://www.inkscape.org/namespaces/inkscape"
   xmlns:sodipodi="http://sodipodi.sourceforge.net/DTD/sodipodi-0.dtd"
   xmlns="http://www.w3.org/2000/svg"
   xmlns:svg="http://www.w3.org/2000/svg">
  <defs
     id="defs1" />
  <sodipodi:namedview
     id="namedview1"
     pagecolor="#ffffff"
     bordercolor="#000000"
     borderopacity="0.25"
     inkscape:showpageshadow="2"
     inkscape:pageopacity="0.0"
     inkscape:pagecheckerboard="0"
     inkscape:deskcolor="#d1d1d1"
     showgrid="false"
     inkscape:zoom="50.208333"
     inkscape:cx="11.990042"
     inkscape:cy="12"
     inkscape:window-width="2560"
     inkscape:window-height="1440"
     inkscape:window-x="0"
     inkscape:window-y="0"
     inkscape:window-maximized="0"
     inkscape:current-layer="svg1" />
  <path
     d="M 480,-80 Q 397,-80 324,-111.5 251,-143 197,-197 143,-251 111.5,-324 80,-397 80,-480 q 0,-83 31.5,-156 31.5,-73 85.5,-127 54,-54 127,-85.5 73,-31.5 156,-31.5 83,0 156,31.5 73,31.5 127,85.5 54,54 85.5,127 31.5,73 31.5,156 0,83 -31.5,156 -31.5,73 -85.5,127 -54,54 -127,85.5 Q 563,-80 480,-80 Z"
     id="path3"
     style="display:inline;fill:#62635e;fill-opacity:1;font-variation-settings:normal;opacity:1;vector-effect:none;stroke-width:1;stroke-linecap:butt;stroke-linejoin:miter;stroke-miterlimit:4;stroke-dasharray:none;stroke-dashoffset:0;stroke-opacity:1;-inkscape-stroke:none;stop-color:#000000;stop-opacity:1" />
  <path
     d="M 480,-480 Z"
     id="path5"
     style="display:inline" />
  <path
     d="m 480,-160 q 134,0 227,-93 93,-93 93,-227 0,-134 -93,-227 -93,-93 -227,-93 -134,0 -227,93 -93,93 -93,227 0,134 93,227 93,93 227,93 z"
     id="path4"
     style="font-variation-settings:normal;display:inline;opacity:1;vector-effect:none;fill:#dcdcd7;fill-opacity:0.92959797;stroke-width:1;stroke-linecap:butt;stroke-linejoin:miter;stroke-miterlimit:4;stroke-dasharray:none;stroke-dashoffset:0;stroke-opacity:1;-inkscape-stroke:none;stop-color:#000000;stop-opacity:1" />
</svg>
