<svg xmlns="http://www.w3.org/2000/svg" xmlns:xlink="http://www.w3.org/1999/xlink" version="1.1" x="0px" y="0px" viewBox="0 0 24 24" style="enable-background:new 0 0 24 24;" xml:space="preserve"><g><path d="M12,8.833c-1.746,0-3.167,1.421-3.167,3.167s1.421,3.167,3.167,3.167s3.167-1.421,3.167-3.167S13.746,8.833,12,8.833z    M12,14.463c-1.358,0-2.463-1.105-2.463-2.463S10.642,9.537,12,9.537s2.463,1.105,2.463,2.463S13.358,14.463,12,14.463z"></path><path d="M19.677,10.369h-1.922c-0.126-0.446-0.305-0.877-0.533-1.284l1.36-1.36c0.037-0.037,0.037-0.098,0-0.136l-2.172-2.172   c-0.037-0.037-0.098-0.037-0.136,0l-1.36,1.36c-0.407-0.228-0.838-0.406-1.284-0.533V4.323c0-0.053-0.043-0.096-0.096-0.096h-3.071   c-0.053,0-0.096,0.043-0.096,0.096v1.922C9.923,6.371,9.492,6.55,9.085,6.777l-1.36-1.36c-0.037-0.037-0.098-0.037-0.136,0   L5.417,7.589c-0.037,0.037-0.037,0.098,0,0.136l1.36,1.36C6.55,9.492,6.371,9.923,6.245,10.369H4.323   c-0.053,0-0.096,0.043-0.096,0.096v3.071c0,0.053,0.043,0.096,0.096,0.096h1.922c0.126,0.445,0.305,0.877,0.533,1.284l-1.36,1.36   c-0.037,0.037-0.037,0.098,0,0.136l2.172,2.172c0.037,0.037,0.098,0.037,0.136,0l1.36-1.36c0.407,0.228,0.838,0.406,1.284,0.533   v1.922c0,0.053,0.043,0.096,0.096,0.096h3.071c0.053,0,0.096-0.043,0.096-0.096v-1.922c0.446-0.126,0.877-0.305,1.284-0.533   l1.36,1.36c0.037,0.037,0.098,0.037,0.136,0l2.172-2.172c0.037-0.037,0.037-0.098,0-0.136l-1.36-1.36   c0.228-0.407,0.406-0.838,0.533-1.284h1.922c0.053,0,0.096-0.043,0.096-0.096v-3.071C19.773,10.412,19.73,10.369,19.677,10.369z    M17.18,13.005c-0.033,0.17-0.074,0.339-0.124,0.502c0,0,0,0,0,0c-0.106,0.354-0.245,0.691-0.414,1.001   c-0.083,0.153-0.173,0.301-0.269,0.442c-0.026,0.038-0.021,0.089,0.011,0.122l1.27,1.27l-1.312,1.312l-1.27-1.27   c-0.033-0.033-0.084-0.037-0.121-0.012c-0.142,0.096-0.291,0.187-0.442,0.269c-0.311,0.169-0.648,0.308-1.001,0.414   c-0.165,0.049-0.334,0.091-0.503,0.124c-0.045,0.009-0.078,0.048-0.078,0.094v1.796h-1.855v-1.796c0-0.046-0.032-0.085-0.078-0.094   c-0.168-0.033-0.337-0.074-0.503-0.124c-0.354-0.106-0.691-0.245-1.001-0.414c-0.151-0.082-0.299-0.172-0.442-0.269   c-0.037-0.026-0.089-0.021-0.122,0.012l-1.27,1.27l-1.312-1.312l1.27-1.27c0.033-0.032,0.037-0.084,0.012-0.122   c-0.096-0.141-0.186-0.29-0.269-0.442c-0.169-0.311-0.308-0.648-0.413-1.001c-0.049-0.166-0.091-0.335-0.124-0.503   c-0.009-0.045-0.048-0.078-0.094-0.078H4.93v-1.855h1.796c0.046,0,0.085-0.033,0.094-0.078c0.032-0.167,0.074-0.337,0.124-0.503   c0.106-0.354,0.245-0.691,0.414-1.001C7.44,9.338,7.531,9.189,7.626,9.048C7.652,9.01,7.647,8.959,7.615,8.927l-1.27-1.27   l1.312-1.312l1.27,1.27c0.033,0.033,0.084,0.037,0.122,0.012C9.191,7.53,9.34,7.439,9.491,7.358   c0.311-0.169,0.648-0.308,1.001-0.414c0.165-0.049,0.335-0.091,0.503-0.124c0.045-0.009,0.078-0.048,0.078-0.094V4.93h1.855v1.796   c0,0.046,0.032,0.085,0.078,0.094c0.168,0.033,0.338,0.074,0.503,0.124c0.354,0.106,0.691,0.245,1.001,0.414   c0.151,0.082,0.3,0.172,0.442,0.269c0.038,0.026,0.089,0.021,0.121-0.012l1.27-1.27l1.312,1.312l-1.27,1.27   c-0.032,0.033-0.037,0.084-0.011,0.122c0.096,0.141,0.186,0.29,0.269,0.442c0.169,0.311,0.308,0.648,0.413,1.002   c0.049,0.164,0.091,0.333,0.124,0.502c0.009,0.045,0.048,0.078,0.094,0.078h1.796v1.855h-1.796   C17.228,12.928,17.188,12.96,17.18,13.005z"></path></g></svg>