<?xml version="1.0" encoding="UTF-8" standalone="no"?>
<svg
   height="24px"
   viewBox="0 -960 960 960"
   width="24px"
   fill="#000000"
   version="1.1"
   id="svg1"
   xmlns="http://www.w3.org/2000/svg"
   xmlns:svg="http://www.w3.org/2000/svg">
  <path
     d="M480-80q-26 0-47-12.5T400-126q-33 0-56.5-23.5T320-206v-142q-59-39-94.5-103T190-590q0-121 84.5-205.5T480-880q121 0 205.5 84.5T770-590q0 77-35.5 140T640-348v142q0 33-23.5 56.5T560-126q-12 21-33 33.5T480-80Zm-80-126h160v-36H400v36Zm0-76h160v-38H400v38Zm-8-118h58v-108l-88-88 42-42 76 76 76-76 42 42-88 88v108h58q54-26 88-76.5T690-590q0-88-61-149t-149-61q-88 0-149 61t-61 149q0 63 34 113.5t88 76.5Zm88-162Zm0-38Z"
     id="path1" />
  <path
     style="fill:#4dcbdc;fill-opacity:0.80000001;stroke-width:0.0288809"
     d="M 10.00722,18.397112 V 17.949458 H 12 13.99278 v 0.447654 0.447653 H 12 10.00722 Z"
     id="path4"
     transform="matrix(40,0,0,40,0,-960)" />
  <path
     style="fill:#4dcbdc;fill-opacity:0.8;stroke-width:0.0288809"
     d="M 10.00722,16.476534 V 16.01444 H 12 13.99278 v 0.462094 0.462094 H 12 10.00722 Z"
     id="path5"
     transform="matrix(40,0,0,40,0,-960)" />
  <path
     style="fill:#4dcbdc;fill-opacity:0.8;stroke-width:0.0288809"
     d="M 9.5740072,13.860286 C 9.0680766,13.589216 8.6415477,13.263094 8.2310469,12.833466 7.499376,12.067704 7.054366,11.228325 6.8540258,10.236128 6.7958353,9.9479356 6.7874449,9.8219983 6.7877852,9.2418773 6.7881182,8.6741054 6.7976324,8.5279425 6.8532846,8.2356381 7.1002835,6.9383134 7.8269724,5.8021303 8.9295395,4.9893993 9.8967105,4.2764723 11.026888,3.9631025 12.375055,4.0340442 c 1.279784,0.067343 2.417441,0.5846369 3.350827,1.5236245 0.747734,0.7522217 1.225693,1.6537109 1.421347,2.6808393 0.05507,0.2890773 0.06465,0.4371139 0.06499,1.0033693 4.39e-4,0.7478772 -0.04386,1.0585257 -0.230333,1.6151887 -0.429902,1.283359 -1.426787,2.435365 -2.635383,3.045463 l -0.178787,0.09025 H 13.459307 12.750903 V 12.657177 11.321574 L 13.862894,10.209308 14.974885,9.0970429 14.440447,8.5631905 13.906008,8.0293378 12.953004,8.9820139 12,9.93469 11.046996,8.9820139 10.093992,8.0293378 9.5595533,8.5631905 9.025115,9.0970429 l 1.111991,1.1122651 1.111991,1.112266 v 1.335603 1.335603 l -0.714801,-4.83e-4 -0.7148014,-4.82e-4 z"
     id="path6"
     transform="matrix(40,0,0,40,0,-960)" />
</svg>
