<?xml version="1.0" encoding="UTF-8" standalone="no"?>
<svg
   height="24px"
   viewBox="0 -960 960 960"
   width="24px"
   fill="#1f1f1f"
   version="1.1"
   id="svg1"
   sodipodi:docname="folder_copy.svg"
   xmlns:sodipodi="http://sodipodi.sourceforge.net/DTD/sodipodi-0.dtd"
   xmlns="http://www.w3.org/2000/svg"
   xmlns:svg="http://www.w3.org/2000/svg">
  <defs
     id="defs1" />
  <sodipodi:namedview
     id="namedview1"
     pagecolor="#ffffff"
     bordercolor="#000000"
     borderopacity="0.25" />
  <path
     d="M120-120q-33 0-56.5-23.5T40-200v-520h80v520h680v80H120Zm160-160q-33 0-56.5-23.5T200-360v-440q0-33 23.5-56.5T280-880h200l80 80h280q33 0 56.5 23.5T920-720v360q0 33-23.5 56.5T840-280H280Zm0-80h560v-360H527l-80-80H280v440Zm0 0v-440 440Z"
     id="path1" />
  <path
     style="fill:#4dcbdc;stroke-width:0.0288809"
     d="M 7.0036101,9.4873646 V 4 h 2.0723569 2.072357 l 1.010521,1.0108303 1.010521,1.0108303 h 3.906291 3.906292 v 4.4765344 4.476534 H 13.99278 7.0036101 Z"
     id="path2"
     transform="matrix(40,0,0,40,0,-960)" />
</svg>
