<svg xmlns="http://www.w3.org/2000/svg" data-name="Layer 1" viewBox="0 0 100 100" x="0px" y="0px"><title>88all</title><path d="M80.64,66.66H75.41V22.1A11.25,11.25,0,0,0,64.17,10.87H18.77a3,3,0,0,0-.63.07,11.23,11.23,0,0,0,0,22.33,3,3,0,0,0,.63.07h.64V78s0,.05,0,.08A11.24,11.24,0,0,0,30.64,89.13H79.86l.26,0,.52,0a11.23,11.23,0,1,0,0-22.47ZM14.12,22.1a5.24,5.24,0,0,1,5.23-5.23H54.24a11.17,11.17,0,0,0,0,10.47H19.36A5.24,5.24,0,0,1,14.12,22.1ZM25.41,77.9V33.34H64.17a3,3,0,0,0,0-6,5.23,5.23,0,1,1,5.23-5.23V78s0,.05,0,.08a11.16,11.16,0,0,0,1.29,5.07H30.64A5.24,5.24,0,0,1,25.41,77.9Zm55.23,5.23a5.24,5.24,0,0,1-5.23-5.23V72.66h5.23a5.23,5.23,0,1,1,0,10.47Z"></path><rect x="29.33" y="41.33" width="8" height="6"></rect><rect x="42.33" y="41.33" width="22" height="6"></rect><rect x="29.33" y="53.33" width="8" height="6"></rect><rect x="42.33" y="53.33" width="22" height="6"></rect><rect x="29.33" y="65.33" width="8" height="6"></rect><rect x="42.33" y="65.33" width="22" height="6"></rect></svg>