<?xml version="1.0" encoding="UTF-8" standalone="no"?>
<svg
   width="1024"
   height="1024"
   viewBox="0 0 1024 1024"
   version="1.1"
   xml:space="preserve"
   style="clip-rule:evenodd;fill-rule:evenodd;stroke-linejoin:round;stroke-miterlimit:2"
   id="svg7"
   xmlns:xlink="http://www.w3.org/1999/xlink"
   xmlns="http://www.w3.org/2000/svg"
   xmlns:svg="http://www.w3.org/2000/svg"><defs
   id="defs7"><linearGradient
     id="swatch16"><stop
       style="stop-color:#ffffff;stop-opacity:1;"
       offset="0"
       id="stop16" /></linearGradient><linearGradient
     id="swatch15"><stop
       style="stop-color:#0060c7;stop-opacity:1;"
       offset="0"
       id="stop15" /></linearGradient><linearGradient
     id="swatch14"><stop
       style="stop-color:#b4ce00;stop-opacity:1;"
       offset="0"
       id="stop14" /></linearGradient><linearGradient
     id="swatch13"><stop
       style="stop-color:#004697;stop-opacity:1;"
       offset="0"
       id="stop13" /></linearGradient><linearGradient
     id="swatch12"><stop
       style="stop-color:#00c1d6;stop-opacity:1;"
       offset="0"
       id="stop12" /></linearGradient><linearGradient
     id="swatch11"><stop
       style="stop-color:#0382e2;stop-opacity:1;"
       offset="0"
       id="stop11" /></linearGradient><style
     id="style1">
      .cls-1 {
        fill: #0382e2;
      }

      .cls-1, .cls-2, .cls-3, .cls-4, .cls-5, .cls-6 {
        stroke-width: 0px;
      }

      .cls-2 {
        fill: #00c1d6;
      }

      .cls-3 {
        fill: #b4ce00;
      }

      .cls-4 {
        fill: #fff;
      }

      .cls-5 {
        fill: #0060c7;
      }

      .cls-6 {
        fill: #004697;
      }
    </style><style
     id="style1-9">
      .cls-1 {
        fill: #0382e2;
      }

      .cls-1, .cls-2, .cls-3, .cls-4, .cls-5, .cls-6 {
        stroke-width: 0px;
      }

      .cls-2 {
        fill: #00c1d6;
      }

      .cls-3 {
        fill: #b4ce00;
      }

      .cls-4 {
        fill: #fff;
      }

      .cls-5 {
        fill: #0060c7;
      }

      .cls-6 {
        fill: #004697;
      }
    </style><style
     id="style1-7">
      .cls-1 {
        fill: #fff;
      }

      .cls-1, .cls-2 {
        stroke-width: 0px;
      }

      .cls-2 {
        fill: #004697;
      }
    </style><linearGradient
     xlink:href="#swatch13"
     id="linearGradient1"
     gradientUnits="userSpaceOnUse"
     x1="132"
     y1="512"
     x2="892"
     y2="512" /></defs>
    
    <g
   id="g12"
   clip-path="none"
   style="clip-rule:evenodd;display:inline;fill-rule:evenodd;stroke-linejoin:round;stroke-miterlimit:2"><path
     id="ellipse1"
     clip-path="none"
     style="clip-rule:evenodd;fill:url(#swatch11);fill-rule:evenodd;stroke-width:11.3386;stroke-linecap:round;stroke-linejoin:round;stroke-miterlimit:2"
     d="M 512,62 A 450,450 0 0 0 62,512 450,450 0 0 0 512,962 450,450 0 0 0 962,512 450,450 0 0 0 512,62 Z" /><path
     id="ellipse2"
     clip-path="none"
     style="clip-rule:evenodd;fill:url(#swatch12);fill-rule:evenodd;stroke-width:17.6384;stroke-linecap:round;stroke-linejoin:round;stroke-miterlimit:2"
     d="M 959.40039,463.69727 A 1220.5096,449.45505 0 0 0 489.45898,818.11719 1220.5096,449.45505 0 0 0 552.06055,960.21289 450,450 0 0 0 962,512 450,450 0 0 0 959.40039,463.69727 Z" /><path
     id="ellipse8"
     clip-path="none"
     style="clip-rule:evenodd;fill:url(#swatch14);fill-rule:evenodd;stroke-width:14.1512;stroke-linecap:round;stroke-linejoin:round;stroke-miterlimit:2"
     d="M 90.439453,669.43945 A 450,450 0 0 0 512,962 450,450 0 0 0 667.80859,934.16602 598.13824,328.4375 0 0 0 90.439453,669.43945 Z" /><path
     id="ellipse9"
     clip-path="none"
     style="display:inline;fill:url(#swatch15);stroke-width:10.961;stroke-linecap:round;stroke-linejoin:round"
     d="M 512,62 A 450,450 0 0 0 62,512 450,450 0 0 0 67.15625,579.92773 1044.7284,755.44653 0 0 0 709.94141,107.87305 450,450 0 0 0 512,62 Z" /><path
     id="ellipse10"
     clip-path="none"
     style="fill:url(#swatch13);stroke-width:11.3386;stroke-linecap:round;stroke-linejoin:round"
     d="M 442.28906,67.431641 A 450,450 0 0 0 63.238281,478.62695 1069.0244,912.20465 0 0 0 442.28906,67.431641 Z" /><path
     id="circle12"
     clip-path="none"
     style="clip-rule:evenodd;display:inline;fill:url(#linearGradient1);fill-opacity:1;fill-rule:evenodd;stroke:none;stroke-width:1.43092;stroke-linejoin:round;stroke-miterlimit:2"
     d="M 512,132 A 380,380 0 0 0 132,512 380,380 0 0 0 512,892 380,380 0 0 0 892,512 380,380 0 0 0 512,132 Z"><desc
       id="desc10">This is the background behind the text</desc></path></g><g
   id="g1"
   style="display:inline"
   transform="matrix(22.345525,0,0,22.345525,-2950.7407,-8638.3363)"><path
     class="cls-1"
     d="m 151.32756,406.08725 -5.68115,15.02309 0.19785,1.55346 1.42892,-0.59962 5.44021,-14.48002 c 0.9277,0.68711 2.07962,1.08188 3.30344,1.08188 0.54298,0 1.07278,-0.0853 1.5784,-0.22833 l 5.12013,13.62818 1.36737,0.59962 0.19785,-1.6943 -5.05705,-13.35418 c 2.18735,-1.63455 2.7433,-4.77262 1.18051,-7.01446 l -0.40669,-0.58469 -1.76746,1.16083 -0.0132,0.0107 0.022,0.0213 0.33634,0.48226 c 0.81558,1.16936 0.69468,2.64386 -0.19785,3.6534 l -1.4531,-3.86977 c 0.10992,-0.2454 0.17587,-0.51426 0.17587,-0.79807 0,-0.6487 -0.32755,-1.22484 -0.83097,-1.58334 v -2.77467 h -2.31792 v 2.72816 c -0.54079,0.35208 -0.89472,0.9517 -0.89472,1.62814 0,0.21339 0.044,0.41397 0.0879,0.60389 l -1.62237,4.29271 -0.19785,0.50572 c 0,0 0,0 0,0 z m 3.23639,-3.13038 c 0.15388,0.0427 0.33195,0.0641 0.50781,0.0641 0.1319,0 0.24182,-0.0124 0.35833,-0.0213 l 1.32999,3.53774 c -0.44846,0.1067 -0.9189,0.12804 -1.38495,0.0427 -0.69907,-0.12804 -1.3234,-0.48013 -1.79384,-1.00079 0,0 0.98266,-2.61634 0.98266,-2.61634 z"
     id="path2"
     style="fill:#ffffff;stroke-width:0px" /></g>
</svg>
