<?xml version="1.0" encoding="UTF-8" standalone="no"?>
<svg
   height="24px"
   viewBox="0 -960 960 960"
   width="24px"
   fill="#000000"
   version="1.1"
   id="svg1"
   xmlns="http://www.w3.org/2000/svg"
   xmlns:svg="http://www.w3.org/2000/svg">
  <path
     d="M816-672v456q0 29.7-21.15 50.85Q773.7-144 744-144H216q-29.7 0-50.85-21.15Q144-186.3 144-216v-528q0-29.7 21.15-50.85Q186.3-816 216-816h456l144 144Zm-72 30L642-744H216v528h528v-426ZM480-252q45 0 76.5-31.5T588-360q0-45-31.5-76.5T480-468q-45 0-76.5 31.5T372-360q0 45 31.5 76.5T480-252ZM264-552h336v-144H264v144Zm-48-77v413-528 115Z"
     id="path1" />
  <path
     style="fill:#4dcbdc;fill-opacity:0.8;stroke-width:0.0288809"
     d="M 5.4151625,12 V 5.4151625 h 5.3069805 5.306981 l 1.277857,1.2780986 1.277857,1.2780987 v 5.3067392 5.306739 H 12 5.4151625 Z m 7.2779785,5.630161 c 0.911295,-0.224375 1.690575,-1.000955 1.940135,-1.93341 0.09193,-0.343487 0.09185,-1.054763 -1.48e-4,-1.400722 C 14.440055,13.570018 13.902847,12.912806 13.227437,12.57633 12.780851,12.353849 12.570304,12.307785 12,12.307785 c -0.570304,0 -0.780851,0.04606 -1.227437,0.268545 -0.67541,0.336476 -1.2126176,0.993688 -1.4056905,1.719699 -0.092003,0.345959 -0.092079,1.057235 -1.487e-4,1.400722 0.2807263,1.048906 1.1718582,1.841102 2.2425772,1.993599 0.268391,0.03823 0.805209,0.0084 1.08384,-0.06019 z M 15.00361,8.4043321 V 6.599278 H 10.801444 6.599278 v 1.8050541 1.8050539 h 4.202166 4.202166 z"
     id="path2"
     transform="matrix(40,0,0,40,0,-960)" />
</svg>
