<?xml version="1.0" encoding="UTF-8" standalone="no"?>
<svg
   height="24px"
   viewBox="0 -960 960 960"
   width="24px"
   fill="#1f1f1f"
   version="1.1"
   id="svg1"
   sodipodi:docname="search.svg"
   inkscape:version="1.3.2 (091e20e, 2023-11-25, custom)"
   xmlns:inkscape="http://www.inkscape.org/namespaces/inkscape"
   xmlns:sodipodi="http://sodipodi.sourceforge.net/DTD/sodipodi-0.dtd"
   xmlns="http://www.w3.org/2000/svg"
   xmlns:svg="http://www.w3.org/2000/svg">
  <defs
     id="defs1" />
  <sodipodi:namedview
     id="namedview1"
     pagecolor="#ffffff"
     bordercolor="#000000"
     borderopacity="0.25"/>
  <path
     d="M784-120 532-372q-30 24-69 38t-83 14q-109 0-184.5-75.5T120-580q0-109 75.5-184.5T380-840q109 0 184.5 75.5T640-580q0 44-14 83t-38 69l252 252-56 56ZM380-400q75 0 127.5-52.5T560-580q0-75-52.5-127.5T380-760q-75 0-127.5 52.5T200-580q0 75 52.5 127.5T380-400Z"
     id="path1" />
  <path
     style="fill:#4dcbdc;stroke-width:0.0288809"
     d="M 9.0108303,13.962084 C 7.8917675,13.851533 6.9324343,13.352256 6.1278502,12.461661 5.7417796,12.034319 5.397619,11.443099 5.2286551,10.916968 5.0745656,10.437154 5.0273906,10.099879 5.0286944,9.4873646 5.0297492,8.9918868 5.0391009,8.8803275 5.1064901,8.5593216 5.2682016,7.7890154 5.5947746,7.1376981 6.1146072,6.5487329 6.8014265,5.7705732 7.6307422,5.2907908 8.6337366,5.0913458 c 0.459442,-0.09136 1.2780598,-0.091078 1.7392634,5.981e-4 0.99463,0.1977092 1.790486,0.659635 2.512502,1.4582919 1.025882,1.1347773 1.366609,2.8135138 0.886129,4.3658902 -0.112506,0.363493 -0.387908,0.891086 -0.641242,1.228439 -0.263448,0.350821 -0.727188,0.807104 -1.066251,1.049105 -0.846569,0.604227 -1.937119,0.878681 -3.0533077,0.768414 z"
     id="path2"
     transform="matrix(40,0,0,40,0,-960)" />
</svg>
