<?xml version="1.0" encoding="UTF-8" standalone="no"?>
<svg
   height="24"
   viewBox="0 -960 960 960"
   width="24"
   xmlns="http://www.w3.org/2000/svg"
   xmlns:svg="http://www.w3.org/2000/svg">
  <path
     d="m370-80-16-128q-13-5-24.5-12T307-235l-119 50L78-375l103-78q-1-7-1-13.5v-27q0-6.5 1-13.5L78-585l110-190 119 50q11-8 23-15t24-12l16-128h220l16 128q13 5 24.5 12t22.5 15l119-50 110 190-103 78q1 7 1 13.5v27q0 6.5-2 13.5l103 78-110 190-118-50q-11 8-23 15t-24 12L590-80H370Zm70-80h79l14-106q31-8 57.5-23.5T639-327l99 41 39-68-86-65q5-14 7-29.5t2-31.5q0-16-2-31.5t-7-29.5l86-65-39-68-99 42q-22-23-48.5-38.5T533-694l-13-106h-79l-14 106q-31 8-57.5 23.5T321-633l-99-41-39 68 86 64q-5 15-7 30t-2 32q0 16 2 31t7 30l-86 65 39 68 99-42q22 23 48.5 38.5T427-266l13 106Zm42-180q58 0 99-41t41-99q0-58-41-99t-99-41q-59 0-99.5 41T342-480q0 58 40.5 99t99.5 41Zm-2-140Z"
     id="path1" />
  <path
     style="fill:#4dcbdc;stroke-width:0.0288809"
     d="m 11.004868,19.906137 c -0.0087,-0.05162 -0.08143,-0.639711 -0.16165,-1.306859 -0.08022,-0.667148 -0.151267,-1.229242 -0.157887,-1.249097 -0.0066,-0.01986 -0.03405,-0.0361 -0.06095,-0.0361 -0.08821,0 -0.6544828,-0.205524 -0.9492897,-0.344541 C 9.1617661,16.727481 8.68557,16.400454 8.2267434,15.974888 L 8.0202738,15.783386 6.7977687,16.302429 c -0.6723779,0.285474 -1.2329357,0.508613 -1.2456841,0.495865 -0.012748,-0.01275 -0.2313087,-0.385078 -0.4856897,-0.8274 -0.4416684,-0.76798 -0.4601742,-0.806423 -0.4106622,-0.853098 0.035861,-0.03381 1.8654236,-1.417187 2.0827519,-1.574824 0.00508,-0.0037 -0.016202,-0.08919 -0.047302,-0.19 C 6.5701062,12.960487 6.5295552,12.621561 6.5293059,12 6.5291631,11.644031 6.544283,11.31581 6.5672232,11.176895 6.6041283,10.953416 6.689465,10.593028 6.7292875,10.492477 6.744636,10.453722 6.6164504,10.345129 6.1180368,9.9746524 5.7711671,9.7168202 5.2891697,9.3585441 5.0469314,9.1784838 4.8046931,8.9984231 4.6064982,8.8457794 4.6064982,8.8392754 c 0,-0.020914 0.9028901,-1.5888774 0.9359963,-1.6254556 0.024682,-0.027271 0.3090396,0.079493 1.2528712,0.4703977 L 8.0163079,8.1898934 8.3402839,7.9110611 C 8.945161,7.390469 9.6257669,6.9984479 10.296323,6.7844051 10.478833,6.7261477 10.64178,6.6750729 10.658428,6.6709056 10.675698,6.6665825 10.760472,6.1131537 10.85583,5.3822058 10.947754,4.6775883 11.029233,4.0783394 11.036894,4.0505415 11.049806,4.0036941 11.121301,4 12.015078,4 h 0.964254 l 0.01578,0.093863 c 0.02258,0.1343755 0.304531,2.4592551 0.304531,2.5111063 0,0.029704 0.113256,0.080831 0.361836,0.1633425 0.806173,0.2675957 1.436286,0.6387252 2.068908,1.2185632 l 0.250238,0.2293594 1.222347,-0.5189764 c 0.947158,-0.4021381 1.229565,-0.5110051 1.254407,-0.4835686 0.01763,0.019475 0.236173,0.3917502 0.485644,0.8272789 0.433878,0.7574677 0.451322,0.7940009 0.401492,0.8408964 -0.02865,0.026964 -0.351009,0.274076 -0.716352,0.5491371 -1.301382,0.9797902 -1.377109,1.0406932 -1.357493,1.0917612 0.119574,0.311293 0.216699,0.973396 0.216699,1.477237 0,0.503841 -0.09713,1.165944 -0.216699,1.477237 -0.01962,0.05107 0.05611,0.111971 1.357493,1.091761 0.365343,0.275061 0.687701,0.522173 0.716352,0.549137 0.04983,0.0469 0.03239,0.08343 -0.401492,0.840897 -0.249471,0.435529 -0.467952,0.807745 -0.485513,0.827148 -0.02468,0.02727 -0.309327,-0.07961 -1.254128,-0.470918 l -1.222199,-0.506196 -0.188196,0.167669 c -0.670254,0.597149 -1.340567,0.994186 -2.089012,1.237355 -0.182671,0.05935 -0.345751,0.11121 -0.362399,0.115245 -0.0173,0.0042 -0.101887,0.556306 -0.197402,1.288459 -0.09192,0.704618 -0.173403,1.303867 -0.181064,1.331664 C 12.950194,19.996306 12.878699,20 11.984922,20 h -0.964254 z m 1.793063,-4.467914 c 0.679021,-0.141236 1.229326,-0.447458 1.750509,-0.974089 0.484051,-0.48911 0.790661,-1.035916 0.936366,-1.66991 0.08238,-0.358463 0.07545,-1.292606 -0.01217,-1.639755 C 15.312193,10.518784 15.027477,10.020191 14.548351,9.535866 14.023911,9.005734 13.486364,8.7079232 12.779783,8.5560479 12.419579,8.4786241 11.727662,8.4733164 11.356682,8.545131 10.645321,8.682837 10.129112,8.9611827 9.5843832,9.5007749 8.9820335,10.097445 8.6648771,10.730827 8.5647009,11.537149 c -0.1355422,1.090982 0.194024,2.111967 0.9287691,2.877295 0.626702,0.652787 1.279079,0.980641 2.14702,1.078991 0.310514,0.03519 0.845531,0.0097 1.157441,-0.05521 z"
     id="path2"
     transform="matrix(40,0,0,40,0,-960)" />
</svg>
