<svg xmlns="http://www.w3.org/2000/svg" xmlns:xlink="http://www.w3.org/1999/xlink" version="1.1" x="0px" y="0px" viewBox="0 0 64 64" enable-background="new 0 0 64 64" xml:space="preserve"><path d="M56.783,0h-0.002H7.22H7.219C3.238,0,0,3.239,0,7.219v49.562C0,60.762,3.238,64,7.219,64H7.22h49.561h0.002  c3.98,0,7.219-3.238,7.219-7.219V7.218C64.002,3.238,60.764,0,56.783,0z M52.188,50.5h-25v0.375c0,3.377-2.748,6.125-6.125,6.125  s-6.125-2.748-6.125-6.125V50.5h-3.125c-0.828,0-1.5-0.672-1.5-1.5s0.672-1.5,1.5-1.5h3.125v-0.375c0-3.377,2.748-6.125,6.125-6.125  s6.125,2.748,6.125,6.125V47.5h25c0.828,0,1.5,0.672,1.5,1.5S53.016,50.5,52.188,50.5z M52.188,33.5h-3.125v0.375  c0,3.377-2.748,6.125-6.125,6.125s-6.125-2.748-6.125-6.125V33.5h-25c-0.828,0-1.5-0.672-1.5-1.5s0.672-1.5,1.5-1.5h25v-0.375  c0-3.377,2.748-6.125,6.125-6.125s6.125,2.748,6.125,6.125V30.5h3.125c0.828,0,1.5,0.672,1.5,1.5S53.016,33.5,52.188,33.5z   M52.188,16.5h-25v0.375c0,3.377-2.748,6.125-6.125,6.125s-6.125-2.748-6.125-6.125V16.5h-3.125c-0.828,0-1.5-0.672-1.5-1.5  s0.672-1.5,1.5-1.5h3.125v-0.375C14.938,9.748,17.687,7,21.063,7s6.125,2.748,6.125,6.125V13.5h25c0.828,0,1.5,0.672,1.5,1.5  S53.016,16.5,52.188,16.5z"></path><path d="M21.063,10c-1.723,0-3.125,1.402-3.125,3.125v3.75c0,1.723,1.402,3.125,3.125,3.125s3.125-1.402,3.125-3.125v-3.75  C24.188,11.402,22.786,10,21.063,10z"></path><path d="M42.938,27c-1.723,0-3.125,1.402-3.125,3.125v3.75c0,1.723,1.402,3.125,3.125,3.125c1.724,0,3.125-1.402,3.125-3.125v-3.75  C46.063,28.402,44.661,27,42.938,27z"></path><path d="M21.063,44c-1.723,0-3.125,1.402-3.125,3.125v3.75c0,1.723,1.402,3.125,3.125,3.125s3.125-1.402,3.125-3.125v-3.75  C24.188,45.402,22.786,44,21.063,44z"></path></svg>