<?xml version="1.0" encoding="UTF-8" standalone="no"?>
<svg
   x="0px"
   y="0px"
   viewBox="0 0 64 64"
   enable-background="new 0 0 64 64"
   xmlns="http://www.w3.org/2000/svg"
   xmlns:svg="http://www.w3.org/2000/svg">
   <path
     d="M56.783,0h-0.002H7.22H7.219C3.238,0,0,3.239,0,7.219v49.562C0,60.762,3.238,64,7.219,64H7.22h49.561h0.002  c3.98,0,7.219-3.238,7.219-7.219V7.218C64.002,3.238,60.764,0,56.783,0z M52.188,50.5h-25v0.375c0,3.377-2.748,6.125-6.125,6.125  s-6.125-2.748-6.125-6.125V50.5h-3.125c-0.828,0-1.5-0.672-1.5-1.5s0.672-1.5,1.5-1.5h3.125v-0.375c0-3.377,2.748-6.125,6.125-6.125  s6.125,2.748,6.125,6.125V47.5h25c0.828,0,1.5,0.672,1.5,1.5S53.016,50.5,52.188,50.5z M52.188,33.5h-3.125v0.375  c0,3.377-2.748,6.125-6.125,6.125s-6.125-2.748-6.125-6.125V33.5h-25c-0.828,0-1.5-0.672-1.5-1.5s0.672-1.5,1.5-1.5h25v-0.375  c0-3.377,2.748-6.125,6.125-6.125s6.125,2.748,6.125,6.125V30.5h3.125c0.828,0,1.5,0.672,1.5,1.5S53.016,33.5,52.188,33.5z   M52.188,16.5h-25v0.375c0,3.377-2.748,6.125-6.125,6.125s-6.125-2.748-6.125-6.125V16.5h-3.125c-0.828,0-1.5-0.672-1.5-1.5  s0.672-1.5,1.5-1.5h3.125v-0.375C14.938,9.748,17.687,7,21.063,7s6.125,2.748,6.125,6.125V13.5h25c0.828,0,1.5,0.672,1.5,1.5  S53.016,16.5,52.188,16.5z"
     id="path1" /><path
     d="M21.063,10c-1.723,0-3.125,1.402-3.125,3.125v3.75c0,1.723,1.402,3.125,3.125,3.125s3.125-1.402,3.125-3.125v-3.75  C24.188,11.402,22.786,10,21.063,10z"
     id="path2" /><path
     d="M42.938,27c-1.723,0-3.125,1.402-3.125,3.125v3.75c0,1.723,1.402,3.125,3.125,3.125c1.724,0,3.125-1.402,3.125-3.125v-3.75  C46.063,28.402,44.661,27,42.938,27z"
     id="path3" /><path
     d="M21.063,44c-1.723,0-3.125,1.402-3.125,3.125v3.75c0,1.723,1.402,3.125,3.125,3.125s3.125-1.402,3.125-3.125v-3.75  C24.188,45.402,22.786,44,21.063,44z"
     id="path4" /><path
     style="fill:#4dcbdc;stroke-width:0.0770156"
     d="m 41.474512,39.773331 c -2.57133,-0.673146 -4.439533,-2.924408 -4.599003,-5.541983 l -0.04679,-0.768051 H 24.207312 c -11.217782,0 -12.653131,-0.01326 -12.906689,-0.119199 -1.233037,-0.515196 -1.233037,-2.173 0,-2.688196 0.253558,-0.105943 1.688907,-0.119199 12.906689,-0.119199 h 12.621406 l 0.04617,-0.757791 c 0.19556,-3.20996 2.850337,-5.711523 6.061337,-5.711523 1.041498,0 1.793565,0.181797 2.772564,0.670213 0.605262,0.301961 0.852728,0.485135 1.432582,1.060397 1.251936,1.242021 1.876372,2.670013 1.878509,4.295864 l 5.81e-4,0.44284 1.713598,0.0017 c 1.860063,0.0018 2.112055,0.04928 2.499333,0.470548 0.68333,0.743306 0.447814,1.881653 -0.477672,2.308793 -0.269862,0.124549 -0.520552,0.142389 -2.021661,0.143871 l -1.713598,0.0017 -5.81e-4,0.44284 c -0.0036,2.72653 -1.946824,5.178877 -4.651931,5.87068 -0.816588,0.208834 -2.088253,0.207302 -2.893433,-0.0035 z m 2.785779,-3.02533 c 0.674793,-0.324864 1.168932,-0.816081 1.505032,-1.496133 l 0.290032,-0.586839 V 32 29.334972 l -0.290032,-0.58684 c -0.33477,-0.67736 -0.825686,-1.166753 -1.505032,-1.500361 -0.402799,-0.197803 -0.510293,-0.21528 -1.32407,-0.21528 -0.813776,0 -0.92127,0.01748 -1.324069,0.21528 -0.679346,0.333608 -1.170262,0.823001 -1.505032,1.500361 l -0.290032,0.58684 v 2.661034 2.661034 l 0.238952,0.50425 c 0.396247,0.836183 0.991975,1.390425 1.827289,1.700036 0.614165,0.227641 1.784632,0.171837 2.376962,-0.113325 z"
     id="path5" /><path
     style="fill:#4dcbdc;stroke-width:0.0770156"
     d="m 20.216606,22.899232 c -1.631022,-0.231086 -3.286484,-1.276917 -4.200168,-2.65344 -0.630391,-0.949725 -1.036895,-2.241578 -1.036895,-3.295213 v -0.499958 l -1.834993,-0.02314 c -1.794403,-0.02263 -1.840978,-0.02725 -2.105621,-0.208739 -0.891481,-0.611367 -0.891494,-1.811975 -2.6e-5,-2.431908 l 0.333728,-0.232077 1.803456,-0.02437 1.803456,-0.02437 v -0.442829 c 0,-1.591136 0.786215,-3.3293362 1.999193,-4.4199078 1.64968,-1.4832045 3.897017,-1.9731408 5.933418,-1.2935298 1.670411,0.5574685 2.901053,1.6510388 3.653708,3.2467486 0.354352,0.751264 0.503528,1.340015 0.559069,2.206471 l 0.04561,0.7115 12.728205,0.02015 12.728204,0.02015 0.333939,0.232077 c 0.891788,0.619764 0.891772,1.820813 -3.4e-5,2.431908 l -0.270848,0.185594 -12.759402,0.01993 -12.759401,0.01993 -0.04894,0.750231 c -0.06062,0.929188 -0.206422,1.494466 -0.593461,2.300798 -0.892292,1.858943 -2.645986,3.126451 -4.719691,3.411226 -0.682413,0.09371 -0.886727,0.09279 -1.592502,-0.0072 z m 1.333971,-2.910968 c 1.228099,-0.201133 2.248763,-1.110137 2.551482,-2.272355 0.09484,-0.364113 0.119361,-0.928195 0.119361,-2.745685 0,-2.028681 -0.0165,-2.340458 -0.145911,-2.756239 -0.289188,-0.929165 -0.851158,-1.568897 -1.746353,-1.988006 -0.408307,-0.19116 -0.542422,-0.213829 -1.265377,-0.213884 -0.749719,-5.7e-5 -0.846506,0.01786 -1.327808,0.24586 -0.671917,0.318291 -1.227114,0.873487 -1.545405,1.545405 l -0.245921,0.519143 -0.02413,2.44358 c -0.02633,2.665558 0.01492,3.037909 0.41143,3.714508 0.427241,0.729033 1.34465,1.362598 2.175821,1.50263 0.513986,0.08659 0.543984,0.08674 1.042815,0.005 z"
     id="path6" /><path
     style="fill:#4dcbdc;stroke-width:0.0770156"
     d="m 19.870036,56.839147 c -2.433168,-0.535377 -4.318415,-2.454771 -4.779838,-4.866413 -0.06086,-0.318088 -0.110655,-0.783235 -0.110655,-1.033661 v -0.455318 h -1.644344 c -1.024557,0 -1.743019,-0.03304 -1.906137,-0.08765 -1.214993,-0.406795 -1.4372882,-1.896714 -0.390133,-2.614841 0.264643,-0.181489 0.311218,-0.186106 2.105621,-0.208738 l 1.834993,-0.02314 v -0.499958 c 0,-1.056295 0.405266,-2.341575 1.042086,-3.30492 1.214266,-1.836871 3.587511,-2.940811 5.716036,-2.658873 2.133653,0.282618 3.885785,1.533014 4.791134,3.41916 0.387039,0.806333 0.532845,1.37161 0.593461,2.300798 l 0.04894,0.750231 12.759401,0.01993 12.759402,0.01993 0.270848,0.185594 c 1.047411,0.717721 0.825186,2.20801 -0.389913,2.614841 -0.191444,0.0641 -3.639428,0.08765 -12.831044,0.08765 h -12.56925 l -0.04566,0.712394 c -0.05559,0.867326 -0.204678,1.455907 -0.559122,2.207365 -0.703077,1.4906 -1.866909,2.581252 -3.350015,3.139371 -1.089588,0.410031 -2.329701,0.51984 -3.345811,0.296262 z m 2.468335,-3.074076 c 0.879356,-0.402583 1.448176,-1.050618 1.737138,-1.979056 0.129406,-0.415781 0.145911,-0.727558 0.145911,-2.756239 0,-2.534243 -0.04942,-2.908948 -0.470177,-3.564635 -1.085785,-1.692049 -3.388211,-1.996212 -4.838916,-0.639248 -0.469469,0.439134 -0.736106,0.879534 -0.889831,1.469724 -0.158115,0.607045 -0.167204,4.799615 -0.01167,5.38188 0.231157,0.865352 0.823155,1.613993 1.579274,1.997147 0.565788,0.286706 0.885974,0.349436 1.636924,0.3207 0.518234,-0.01983 0.762005,-0.07034 1.111345,-0.230273 z"
     id="path7" /></svg>
