<?xml version="1.0" encoding="UTF-8" standalone="no"?>
<svg
   height="24"
   viewBox="0 -960 960 960"
   width="24"
   xmlns="http://www.w3.org/2000/svg"
   xmlns:svg="http://www.w3.org/2000/svg">
  <path
     d="M360-120q-33 0-56.5-23.5T280-200v-400q0-33 23.5-56.5T360-680h400q33 0 56.5 23.5T840-600v400q0 33-23.5 56.5T760-120H360Zm0-400h400v-80H360v80Zm160 160h80v-80h-80v80Zm0 160h80v-80h-80v80ZM360-360h80v-80h-80v80Zm320 0h80v-80h-80v80ZM360-200h80v-80h-80v80Zm320 0h80v-80h-80v80Zm-480-80q-33 0-56.5-23.5T120-360v-400q0-33 23.5-56.5T200-840h400q33 0 56.5 23.5T680-760v40h-80v-40H200v400h40v80h-40Z"
     id="path1" />
  <path
     style="fill:#4dcbdc;stroke-width:0.0288809"
     d="M 9.0252708,10.00722 V 9.0252708 H 14.00722 18.98917 V 10.00722 10.98917 H 14.00722 9.0252708 Z"
     id="path2"
     transform="matrix(40,0,0,40,0,-960)" />
  <path
     style="fill:#4dcbdc;stroke-width:0.0288809"
     d="m 9.0252708,13.99278 v -0.98195 h 0.9819492 0.98195 v 0.98195 0.981949 H 10.00722 9.0252708 Z"
     id="path3"
     transform="matrix(40,0,0,40,0,-960)" />
  <path
     style="fill:#4dcbdc;stroke-width:0.0288809"
     d="m 13.01083,13.99278 v -0.98195 h 0.98195 0.981949 v 0.98195 0.981949 H 13.99278 13.01083 Z"
     id="path4"
     transform="matrix(40,0,0,40,0,-960)" />
  <path
     style="fill:#4dcbdc;stroke-width:0.0288809"
     d="m 17.025271,13.99278 v -0.98195 h 0.981949 0.98195 v 0.98195 0.981949 h -0.98195 -0.981949 z"
     id="path5"
     transform="matrix(40,0,0,40,0,-960)" />
  <path
     style="fill:#4dcbdc;stroke-width:0.0288809"
     d="m 17.025271,18.00722 v -0.981949 h 0.981949 0.98195 v 0.981949 0.98195 h -0.98195 -0.981949 z"
     id="path6"
     transform="matrix(40,0,0,40,0,-960)" />
  <path
     style="fill:#4dcbdc;stroke-width:0.0288809"
     d="m 13.01083,18.00722 v -0.981949 h 0.98195 0.981949 v 0.981949 0.98195 H 13.99278 13.01083 Z"
     id="path7"
     transform="matrix(40,0,0,40,0,-960)" />
  <path
     style="fill:#4dcbdc;stroke-width:0.0288809"
     d="m 9.0252708,18.00722 v -0.981949 h 0.9819492 0.98195 v 0.981949 0.98195 H 10.00722 9.0252708 Z"
     id="path8"
     transform="matrix(40,0,0,40,0,-960)" />
</svg>
