<?xml version="1.0" encoding="UTF-8" standalone="no"?>
<svg
   height="24"
   viewBox="0 -960 960 960"
   width="24"
   xmlns="http://www.w3.org/2000/svg"
   xmlns:svg="http://www.w3.org/2000/svg">
  <path
     d="M491-200q12-1 20.5-9.5T520-230q0-14-9-22.5t-23-7.5q-41 3-87-22.5T343-375q-2-11-10.5-18t-19.5-7q-14 0-23 10.5t-6 24.5q17 91 80 130t127 35ZM480-80q-137 0-228.5-94T160-408q0-100 79.5-217.5T480-880q161 137 240.5 254.5T800-408q0 140-91.5 234T480-80Zm0-80q104 0 172-70.5T720-408q0-73-60.5-165T480-774Q361-665 300.5-573T240-408q0 107 68 177.5T480-160Zm0-320Z"
     id="path1" />
  <path
     style="fill:#4dcbdc;stroke-width:0.0288809"
     d="M 11.610108,19.96765 C 10.745069,19.926388 9.9716609,19.727541 9.2532745,19.361698 8.648193,19.053557 8.2323482,18.743198 7.7236041,18.220055 6.8045753,17.275013 6.2821333,16.187332 6.0746196,14.787004 c -0.023715,-0.160033 -0.038194,-0.515215 -0.037674,-0.924188 7.78e-4,-0.611776 0.00705,-0.693284 0.07941,-1.031604 C 6.4737669,11.160079 7.5312393,9.3885606 9.4829672,7.1913357 9.8436656,6.785267 11.562786,5.0561225 11.833935,4.8266589 L 12,4.6861243 12.166065,4.8264909 c 0.271211,0.2292416 1.990832,1.9588312 2.351215,2.3648448 1.950017,2.1969254 3.009859,3.9714483 3.365298,5.6346113 0.0736,0.344361 0.0797,0.422967 0.08048,1.036869 5.2e-4,0.408973 -0.01396,0.764155 -0.03767,0.924188 -0.207514,1.400328 -0.729956,2.488009 -1.648985,3.433051 -0.508744,0.523143 -0.924589,0.833502 -1.529671,1.141643 -0.918488,0.467746 -1.931462,0.663439 -3.136617,0.605952 z m 0.828226,-0.979419 c 0.170241,-0.04728 0.375518,-0.20337 0.470572,-0.357807 0.07966,-0.129424 0.08745,-0.164304 0.08714,-0.389892 -4.06e-4,-0.290826 -0.05678,-0.426394 -0.243925,-0.586583 -0.160535,-0.137411 -0.283323,-0.166584 -0.701144,-0.166584 -0.606954,0 -1.093909,-0.118398 -1.717299,-0.417544 C 9.8068996,16.817038 9.5288153,16.602324 9.2506313,16.233583 8.9517421,15.837397 8.761352,15.38445 8.5947817,14.673288 8.5267564,14.382857 8.4567703,14.261281 8.2888087,14.141768 8.1374881,14.034094 8.0101022,13.99278 7.8294347,13.99278 c -0.3847794,0 -0.6696552,0.224892 -0.7460137,0.588934 -0.027627,0.131712 -0.021557,0.196251 0.047979,0.510168 0.2481472,1.120244 0.7115496,2.000599 1.3674932,2.597912 0.6809541,0.620088 1.8456488,1.153565 2.8039448,1.28432 0.339477,0.04632 0.990415,0.05441 1.135496,0.01412 z"
     id="path2"
     transform="matrix(40,0,0,40,0,-960)" />
</svg>
