<svg xmlns="http://www.w3.org/2000/svg" xmlns:svgjs="http://svgjs.com/svgjs" xmlns:xlink="http://www.w3.org/1999/xlink" width="288" height="288"><svg xmlns="http://www.w3.org/2000/svg" width="288" height="288" enable-background="new 0 0 91 91" viewBox="0 0 91 91"><path fill="#2d6cdf" d="M42.773,44.223c-0.729-0.576-1.785-0.455-2.365,0.27c-0.582,0.726-0.465,1.79,0.264,2.372   c1.074,0.861,3.098,1.867,5.432,1.867c1.631,0,3.414-0.49,5.133-1.865c0.727-0.582,0.844-1.646,0.264-2.374   c-0.582-0.727-1.643-0.842-2.373-0.264C46.092,46.663,43.111,44.487,42.773,44.223z" class="color000 svgShape"/><path fill="#2d6cdf" d="M45.947,8.092c-14.883,0-26.988,12.109-26.988,26.994c0,9.83,11.371,24.872,19.018,33.877   c-6.209,0.967-12.025,3.242-12.025,7.162c0,5.088,10.063,7.748,20.002,7.748s20-2.66,20-7.748c0-3.92-5.818-6.195-12.029-7.162   c7.648-9.008,19.021-24.047,19.021-33.877C72.945,20.202,60.834,8.092,45.947,8.092z M62.578,76.126   c0,1.309-5.656,4.375-16.625,4.375c-10.971,0-16.627-3.066-16.627-4.375c0-1.002,3.424-3.281,11.303-4.1   c2.266,2.559,3.854,4.219,4.104,4.479c0.318,0.33,0.756,0.516,1.215,0.516s0.898-0.186,1.217-0.516   c0.25-0.26,1.838-1.92,4.105-4.48C59.152,72.843,62.578,75.124,62.578,76.126z M45.957,55.261c-7.525,0-13.648-6.229-13.648-13.885   c0.01-7.369,12.189-21.418,12.707-22.012c0.238-0.273,0.58-0.43,0.941-0.43s0.705,0.156,0.943,0.43   c0.518,0.594,12.697,14.645,12.697,22.012C59.598,49.032,53.479,55.261,45.957,55.261z" class="color000 svgShape"/></svg></svg>