<?xml version="1.0" encoding="UTF-8" standalone="no"?>
<svg
   width="288"
   height="288"
   enable-background="new 0 0 91 91"
   viewBox="0 0 91 91"
   xmlns="http://www.w3.org/2000/svg"
   xmlns:svg="http://www.w3.org/2000/svg">
  <path
     fill="#000000"
     d="M42.773,44.223c-0.729-0.576-1.785-0.455-2.365,0.27c-0.582,0.726-0.465,1.79,0.264,2.372   c1.074,0.861,3.098,1.867,5.432,1.867c1.631,0,3.414-0.49,5.133-1.865c0.727-0.582,0.844-1.646,0.264-2.374   c-0.582-0.727-1.643-0.842-2.373-0.264C46.092,46.663,43.111,44.487,42.773,44.223z"
     class="color000 svgShape"
     id="path1"
     style="fill:#000000" />
  <path
     fill="#000000"
     d="M45.947,8.092c-14.883,0-26.988,12.109-26.988,26.994c0,9.83,11.371,24.872,19.018,33.877   c-6.209,0.967-12.025,3.242-12.025,7.162c0,5.088,10.063,7.748,20.002,7.748s20-2.66,20-7.748c0-3.92-5.818-6.195-12.029-7.162   c7.648-9.008,19.021-24.047,19.021-33.877C72.945,20.202,60.834,8.092,45.947,8.092z M62.578,76.126   c0,1.309-5.656,4.375-16.625,4.375c-10.971,0-16.627-3.066-16.627-4.375c0-1.002,3.424-3.281,11.303-4.1   c2.266,2.559,3.854,4.219,4.104,4.479c0.318,0.33,0.756,0.516,1.215,0.516s0.898-0.186,1.217-0.516   c0.25-0.26,1.838-1.92,4.105-4.48C59.152,72.843,62.578,75.124,62.578,76.126z M45.957,55.261c-7.525,0-13.648-6.229-13.648-13.885   c0.01-7.369,12.189-21.418,12.707-22.012c0.238-0.273,0.58-0.43,0.941-0.43s0.705,0.156,0.943,0.43   c0.518,0.594,12.697,14.645,12.697,22.012C59.598,49.032,53.479,55.261,45.957,55.261z"
     class="color000 svgShape"
     id="path2"
     style="fill:#000000;fill-opacity:1" />
  <path
     style="fill:#4dcbdc;fill-opacity:1;stroke-width:0.34657"
     d="m 140.94107,174.48242 c -16.69054,-2.08619 -30.40216,-13.16113 -36.02326,-29.09614 -1.71949,-4.87451 -2.294,-8.28639 -2.30514,-13.68953 -0.009,-4.2477 0.10886,-5.28143 0.94432,-8.30012 2.43084,-8.78315 7.26885,-18.37356 15.65634,-31.035619 8.57404,-12.943701 22.61899,-30.986595 24.83514,-31.904552 1.80687,-0.748431 3.19825,-0.165364 5.24599,2.198359 12.30937,14.20884 26.44456,34.588995 32.74233,47.208002 1.90622,3.81952 4.40111,10.18944 5.29389,13.51624 0.45449,1.6936 0.81754,4.33989 0.93292,6.80005 0.76786,16.3734 -9.19301,32.83123 -24.31279,40.17076 -7.11024,3.45148 -15.87074,5.02487 -23.00974,4.13255 z m 11.5499,-20.93912 c 2.98903,-0.80201 7.34124,-3.04525 9.39436,-4.8421 3.02296,-2.64561 3.28092,-5.96948 0.66042,-8.50937 -1.07467,-1.04161 -1.48326,-1.20109 -3.38576,-1.32152 -2.03422,-0.12876 -2.2759,-0.0596 -4.04145,1.15598 -3.23633,2.22825 -5.42613,3.04899 -8.57866,3.21526 -3.55214,0.18735 -6.46971,-0.634 -10.16443,-2.86149 -3.03637,-1.83058 -5.20815,-2.09844 -7.1945,-0.88735 -2.43713,1.48594 -3.30726,5.10068 -1.81642,7.54587 1.62349,2.66276 8.94403,6.20809 14.72933,7.1334 1.96084,0.31362 8.31785,-0.0708 10.39711,-0.62868 z"
     id="path3"
     transform="scale(0.31597222)" />
  <path
     style="fill:#4dcbdc;fill-opacity:1;stroke-width:0.34657"
     d="m 132.90975,254.18343 c -13.34746,-1.06656 -25.30716,-3.82522 -33.175133,-7.65228 -3.751846,-1.82493 -6.680465,-4.2262 -6.680465,-5.47751 0,-1.02631 2.230597,-3.33191 4.52381,-4.67593 5.709888,-3.34647 15.278108,-6.11304 26.605728,-7.69282 l 4.27034,-0.59555 1.96793,2.2297 c 6.29023,7.12693 11.80592,12.80028 12.82082,13.18728 1.30176,0.49639 3.63098,0.35126 4.82355,-0.30054 1.06714,-0.58326 6.39943,-6.14433 11.63028,-12.12926 l 2.49834,-2.85851 2.07942,0.18392 c 3.75405,0.33202 10.65997,1.58616 15.39637,2.79603 10.23677,2.61489 18.04767,6.88569 18.04767,9.86802 0,1.31993 -2.78902,3.61437 -6.6708,5.48785 -7.23615,3.49243 -17.12996,5.94495 -29.5458,7.32395 -4.56646,0.50719 -23.53264,0.70994 -28.59206,0.30565 z"
     id="path4"
     transform="scale(0.31597222)" />
</svg>
