<svg xmlns="http://www.w3.org/2000/svg" xmlns:xlink="http://www.w3.org/1999/xlink" version="1.1" x="0px" y="0px" viewBox="0 0 100 100" style="enable-background:new 0 0 100 100;" xml:space="preserve"><path d="M92,33H80.3L59,17.5V8c0-1.7-1.3-3-3-3H44c-1.7,0-3,1.3-3,3v9.5L19.7,33H8c-1.7,0-3,1.3-3,3v12c0,1.6,1.3,3,3,3h4.3l8.5,26  c-1.5,0.1-2.8,1.4-2.8,3v12c0,1.6,1.3,3,3,3h12c1.7,0,3-1.4,3-3v-3h28v3c0,1.6,1.3,3,3,3h12c1.7,0,3-1.4,3-3V80c0-1.6-1.2-2.9-2.8-3  l8.5-26H92c1.7,0,3-1.4,3-3V36C95,34.3,93.7,33,92,33z M72.9,77H67c-1.7,0-3,1.3-3,3v3H36v-3c0-1.7-1.3-3-3-3h-5.9l-8.5-26H20  c1.7,0,3-1.4,3-3V38L43.7,23c0.1,0,0.2,0,0.3,0h12c0.1,0,0.2,0,0.3,0L77,38v10c0,1.6,1.3,3,3,3h1.4L72.9,77z"></path></svg>